SplineFontDB: 3.0
FontName: Bodoni-48-Book
FullName: Bodoni* 48 Book
FamilyName: Bodoni* 48
Weight: Book
Copyright: Copyright (c) 2017, Owen Earl,,, (EwonRael@yahoo.com)
Version: 001.0
ItalicAngle: 0
UnderlinePosition: -408
UnderlineWidth: 204
Ascent: 3276
Descent: 820
InvalidEm: 0
LayerCount: 2
Layer: 0 0 "Back" 1
Layer: 1 0 "Fore" 0
PreferredKerning: 4
XUID: [1021 31 -699969567 16487490]
FSType: 0
OS2Version: 0
OS2_WeightWidthSlopeOnly: 0
OS2_UseTypoMetrics: 1
CreationTime: 1460762150
ModificationTime: 1565317334
PfmFamily: 17
TTFWeight: 400
TTFWidth: 5
LineGap: 410
VLineGap: 0
OS2TypoAscent: 3276
OS2TypoAOffset: 0
OS2TypoDescent: -820
OS2TypoDOffset: 0
OS2TypoLinegap: 410
OS2WinAscent: 4096
OS2WinAOffset: 0
OS2WinDescent: 1638
OS2WinDOffset: 0
HheadAscent: 4096
HheadAOffset: 0
HheadDescent: -820
HheadDOffset: 0
OS2CapHeight: 700
OS2XHeight: 460
OS2FamilyClass: 768
OS2Vendor: 'PfEd'
OS2UnicodeRanges: 00000001.00000000.00000000.00000000
Lookup: 1 0 0 "'ss02' Style Set 2 lookup 4" { "'ss02' Style Set 2 lookup 4-1"  } ['ss02' ('DFLT' <'dflt' > 'grek' <'dflt' > 'latn' <'dflt' > ) ]
Lookup: 1 0 0 "'ss03' Style Set 3 lookup 5" { "'ss03' Style Set 3 lookup 5-1"  } ['ss03' ('DFLT' <'dflt' > 'grek' <'dflt' > 'latn' <'dflt' > ) ]
Lookup: 1 0 0 "'ss01' Style Set 1 lookup 2" { "'ss01' Style Set 1 lookup 2-1"  } ['ss01' ('DFLT' <'dflt' > 'grek' <'dflt' > 'latn' <'dflt' > ) ]
Lookup: 5 0 0 "'calt' Contextual Alternates lookup 3" { "'calt' Contextual Alternates lookup 3-1"  } ['calt' ('DFLT' <'dflt' > 'grek' <'dflt' > 'latn' <'dflt' > ) ]
Lookup: 4 0 1 "'liga' Standard Ligatures lookup 0" { "'liga' Standard Ligatures lookup 0-1"  } ['liga' ('DFLT' <'dflt' > 'grek' <'dflt' > 'latn' <'dflt' > ) ]
Lookup: 258 0 0 "'kern' Horizontal Kerning lookup 0" { "kerning like they all do" [150,0,6] } ['kern' ('DFLT' <'dflt' > 'grek' <'dflt' > 'latn' <'dflt' > ) ]
MarkAttachClasses: 1
DEI: 91125
KernClass2: 31 27 "kerning like they all do"

StartChar: ampersand
Encoding: 38 38 0
GlifName: ampersand
Width: 3292
Flags: HMW
LayerCount: 2
Fore
SplineSet
2228 1884 m 1
 3212 1884 l 1
 3212 1868 l 1
 2228 1868 l 1
 2228 1884 l 1
2786 1880 m 1
 2700 966 2056 -40 1102 -40 c 0
 558 -40 164 234 164 738 c 0
 164 1316 798 1462 1290 1744 c 0
 1598 1920 1848 2048 1848 2580 c 0
 1848 2772 1778 3096 1470 3096 c 0
 1154 3096 1048 2840 1048 2622 c 0
 1048 2478 1152 2270 1328 2008 c 2
 2626 16 l 1
 3150 16 l 1
 3150 0 l 1
 2192 0 l 1
 836 2008 l 2
 730 2164 648 2366 648 2510 c 0
 648 2878 994 3112 1470 3112 c 0
 1908 3112 2232 2888 2232 2560 c 0
 2232 2068 1752 1970 1314 1740 c 0
 950 1548 614 1318 614 778 c 0
 614 402 880 50 1266 50 c 0
 2082 50 2686 1012 2768 1880 c 1
 2786 1880 l 1
EndSplineSet
EndChar

StartChar: period
Encoding: 46 46 1
GlifName: period
Width: 818
Flags: HMW
LayerCount: 2
Fore
SplineSet
164 204 m 0
 164 340 274 450 410 450 c 0
 546 450 656 340 656 204 c 0
 656 68 546 -40 410 -40 c 0
 274 -40 164 68 164 204 c 0
EndSplineSet
EndChar

StartChar: zero
Encoding: 48 48 2
GlifName: zero
Width: 2538
Flags: HMW
LayerCount: 2
Fore
SplineSet
1270 -40 m 0
 602 -40 164 664 164 1536 c 0
 164 2408 644 3112 1270 3112 c 0
 1896 3112 2376 2408 2376 1536 c 0
 2376 664 1938 -40 1270 -40 c 0
1270 3096 m 0
 762 3096 634 2282 634 1536 c 0
 634 790 722 -24 1270 -24 c 0
 1818 -24 1904 790 1904 1536 c 0
 1904 2282 1778 3096 1270 3096 c 0
EndSplineSet
EndChar

StartChar: one
Encoding: 49 49 3
GlifName: one
Width: 1780
VWidth: 4730
Flags: HMW
LayerCount: 2
Fore
SplineSet
204 16 m 1
 1576 16 l 1
 1576 0 l 1
 204 0 l 1
 204 16 l 1
274 3072 m 1
 1126 3072 l 1
 1126 8 l 1
 738 8 l 1
 738 3056 l 1
 274 3056 l 1
 274 3072 l 1
EndSplineSet
EndChar

StartChar: two
Encoding: 50 50 4
GlifName: two
Width: 2252
VWidth: 4730
Flags: HMW
LayerCount: 2
Fore
SplineSet
2110 0 m 1
 164 0 l 1
 164 266 l 1
 1060 1138 l 2
 1428 1498 1614 1866 1614 2252 c 0
 1614 2718 1434 3064 992 3064 c 0
 558 3064 210 2708 234 2212 c 1
 266 2302 344 2384 488 2384 c 0
 606 2384 730 2298 730 2154 c 0
 730 1990 616 1892 472 1892 c 0
 328 1892 208 1994 208 2248 c 0
 208 2728 524 3112 1126 3112 c 0
 1704 3112 2024 2744 2024 2334 c 0
 2024 1924 1676 1704 1454 1486 c 2
 300 368 l 1
 2094 368 l 1
 2094 676 l 1
 2110 676 l 1
 2110 0 l 1
EndSplineSet
EndChar

StartChar: three
Encoding: 51 51 5
GlifName: three
Width: 2134
VWidth: 4730
Flags: HMW
LayerCount: 2
Fore
SplineSet
1970 820 m 0
 1970 288 1524 -40 946 -40 c 0
 364 -40 102 264 102 558 c 0
 102 726 204 824 348 824 c 0
 470 824 570 742 570 594 c 0
 570 462 454 368 336 368 c 0
 218 368 148 438 132 516 c 1
 148 262 394 -12 902 -12 c 0
 1390 -12 1556 434 1556 820 c 0
 1556 1124 1442 1650 750 1650 c 1
 750 1668 l 1
 1738 1668 1970 1270 1970 820 c 0
750 1650 m 1
 750 1668 l 1
 1402 1668 1434 2158 1434 2420 c 0
 1434 2724 1286 3084 962 3084 c 0
 642 3084 316 2892 254 2614 c 1
 294 2700 376 2740 458 2740 c 0
 576 2740 692 2658 692 2514 c 0
 692 2350 560 2286 458 2286 c 0
 336 2286 226 2372 226 2540 c 0
 226 2834 570 3108 988 3108 c 0
 1442 3108 1848 2870 1848 2420 c 0
 1848 2010 1696 1650 750 1650 c 1
EndSplineSet
EndChar

StartChar: four
Encoding: 52 52 6
GlifName: four
Width: 2436
VWidth: 4730
Flags: HMW
LayerCount: 2
Fore
SplineSet
2252 16 m 1
 2252 0 l 1
 1168 0 l 1
 1168 16 l 1
 1556 16 l 1
 1556 2946 l 1
 176 888 l 1
 2396 888 l 1
 2396 872 l 1
 144 872 l 1
 1618 3072 l 1
 1946 3072 l 1
 1946 16 l 1
 2252 16 l 1
EndSplineSet
Substitution2: "'ss03' Style Set 3 lookup 5-1" four.alt
EndChar

StartChar: five
Encoding: 53 53 7
GlifName: five
Width: 2048
VWidth: 4730
Flags: HMW
LayerCount: 2
Fore
SplineSet
1782 2704 m 1
 290 2704 l 1
 290 1544 l 1
 274 1544 l 1
 274 3072 l 1
 1766 3072 l 1
 1766 3298 l 1
 1782 3298 l 1
 1782 2704 l 1
156 450 m 1
 196 208 500 -16 844 -16 c 0
 1372 -16 1496 556 1496 942 c 0
 1496 1408 1306 1892 942 1892 c 0
 598 1892 366 1676 304 1544 c 1
 282 1544 l 1
 348 1696 618 1926 1032 1926 c 0
 1568 1926 1926 1556 1926 942 c 0
 1926 410 1502 -40 884 -40 c 0
 466 -40 122 234 122 528 c 0
 122 696 234 782 356 782 c 0
 458 782 590 716 590 552 c 0
 590 408 474 328 356 328 c 0
 258 328 180 396 156 450 c 1
EndSplineSet
EndChar

StartChar: six
Encoding: 54 54 8
GlifName: six
Width: 2292
VWidth: 4730
Flags: HMW
LayerCount: 2
Fore
SplineSet
1762 1024 m 0
 1762 1572 1548 1970 1184 1970 c 0
 766 1970 614 1596 614 1146 c 1
 598 1146 l 1
 598 1626 738 2008 1274 2008 c 0
 1688 2008 2170 1720 2170 1024 c 0
 2170 410 1822 -40 1204 -40 c 0
 586 -40 204 410 204 1270 c 0
 204 2266 950 3112 1864 3112 c 1
 1864 3096 l 1
 1152 3096 618 2270 618 1352 c 1
 614 1146 l 1
 614 598 770 -24 1216 -24 c 0
 1662 -24 1762 558 1762 1024 c 0
EndSplineSet
EndChar

StartChar: seven
Encoding: 55 55 9
GlifName: seven
Width: 2068
VWidth: 4730
Flags: HMW
LayerCount: 2
Fore
SplineSet
688 312 m 0
 688 636 1006 1062 1236 1508 c 0
 1396 1816 1646 2326 1814 2682 c 1
 180 2682 l 1
 180 2376 l 1
 164 2376 l 1
 164 3072 l 1
 2028 3072 l 1
 2028 3072 1544 2074 1262 1504 c 0
 1074 1118 966 1004 966 824 c 0
 966 524 1220 464 1220 238 c 0
 1220 86 1138 -40 958 -40 c 0
 798 -40 688 66 688 312 c 0
EndSplineSet
EndChar

StartChar: eight
Encoding: 56 56 10
GlifName: eight
Width: 2252
VWidth: 4730
Flags: HMW
LayerCount: 2
Fore
SplineSet
656 2294 m 0
 656 1950 762 1590 1126 1590 c 0
 1490 1590 1598 1950 1598 2294 c 0
 1598 2638 1490 3096 1126 3096 c 0
 762 3096 656 2638 656 2294 c 0
246 2294 m 0
 246 2744 548 3112 1126 3112 c 0
 1704 3112 2008 2744 2008 2294 c 0
 2008 1844 1704 1572 1126 1572 c 0
 548 1572 246 1844 246 2294 c 0
574 778 m 0
 574 392 720 -24 1126 -24 c 0
 1532 -24 1680 392 1680 778 c 0
 1680 1164 1532 1568 1126 1568 c 0
 720 1568 574 1164 574 778 c 0
164 778 m 0
 164 1270 466 1586 1126 1586 c 0
 1786 1586 2088 1270 2088 778 c 0
 2088 286 1786 -40 1126 -40 c 0
 466 -40 164 286 164 778 c 0
EndSplineSet
EndChar

StartChar: A
Encoding: 65 65 12
GlifName: A_
Width: 3010
Flags: HMW
LayerCount: 2
Fore
SplineSet
82 16 m 1
 984 16 l 1
 984 0 l 1
 82 0 l 1
 82 16 l 1
1762 16 m 1
 2950 16 l 1
 2950 0 l 1
 1762 0 l 1
 1762 16 l 1
820 1008 m 1
 2130 1008 l 1
 2130 992 l 1
 820 992 l 1
 820 1008 l 1
1380 2572 m 1
 488 0 l 1
 466 0 l 1
 1560 3134 l 1
 1576 3134 l 1
 2662 0 l 1
 2212 0 l 1
 1380 2572 l 1
EndSplineSet
EndChar

StartChar: B
Encoding: 66 66 13
GlifName: B_
Width: 2580
Flags: HMW
LayerCount: 2
Fore
SplineSet
1270 1568 m 2
 820 1568 l 1
 820 1586 l 1
 1270 1586 l 2
 1582 1586 1884 1786 1884 2274 c 0
 1884 2762 1582 3056 1270 3056 c 2
 82 3056 l 1
 82 3072 l 1
 1270 3072 l 2
 1888 3072 2294 2846 2294 2314 c 0
 2294 1782 1930 1568 1270 1568 c 2
450 3072 m 1
 840 3072 l 1
 840 0 l 1
 450 0 l 1
 450 3072 l 1
1352 0 m 2
 82 0 l 1
 82 16 l 1
 1310 16 l 2
 1662 16 1966 372 1966 860 c 0
 1966 1348 1662 1568 1310 1568 c 2
 820 1568 l 1
 820 1586 l 1
 1352 1586 l 2
 1930 1586 2416 1392 2416 860 c 0
 2416 246 2012 0 1352 0 c 2
EndSplineSet
EndChar

StartChar: C
Encoding: 67 67 14
GlifName: C_
Width: 2744
Flags: HMW
LayerCount: 2
Fore
SplineSet
2524 3072 m 1
 2540 3072 l 1
 2540 2232 l 1
 2536 2478 2396 2704 2274 2826 c 1
 2524 3072 l 1
2540 2232 m 1
 2524 2232 l 1
 2520 2728 2080 3084 1618 3084 c 0
 906 3084 656 2282 656 1536 c 0
 656 790 906 -12 1618 -12 c 0
 2180 -12 2560 386 2564 840 c 1
 2580 840 l 1
 2580 336 2162 -40 1576 -40 c 0
 744 -40 184 622 184 1536 c 0
 184 2450 744 3112 1576 3112 c 0
 2100 3112 2540 2736 2540 2232 c 1
2580 840 m 1
 2580 0 l 1
 2564 0 l 1
 2334 266 l 1
 2444 380 2572 594 2580 840 c 1
EndSplineSet
EndChar

StartChar: D
Encoding: 68 68 15
GlifName: D_
Width: 2866
Flags: HMW
LayerCount: 2
Fore
SplineSet
450 3072 m 1
 840 3072 l 1
 840 0 l 1
 450 0 l 1
 450 3072 l 1
1228 0 m 2
 82 0 l 1
 82 16 l 1
 1228 16 l 2
 1982 16 2232 790 2232 1536 c 0
 2232 2282 1940 3056 1228 3056 c 2
 82 3056 l 1
 82 3072 l 1
 1228 3072 l 2
 2142 3072 2704 2408 2704 1536 c 0
 2704 664 2100 0 1228 0 c 2
EndSplineSet
EndChar

StartChar: E
Encoding: 69 69 16
GlifName: E_
Width: 2396
Flags: HMW
LayerCount: 2
Fore
SplineSet
2256 922 m 1
 2274 922 l 1
 2274 0 l 1
 82 0 l 1
 82 16 l 1
 1496 16 l 2
 2058 16 2256 402 2256 922 c 1
450 3072 m 1
 840 3072 l 1
 840 0 l 1
 450 0 l 1
 450 3072 l 1
82 3072 m 1
 2232 3072 l 1
 2232 2232 l 1
 2216 2232 l 1
 2216 2670 2016 3056 1536 3056 c 2
 82 3056 l 1
 82 3072 l 1
1520 1138 m 1
 1520 1412 1320 1582 1086 1582 c 2
 758 1582 l 1
 758 1598 l 1
 1086 1598 l 2
 1320 1598 1520 1746 1520 2020 c 1
 1536 2020 l 1
 1536 1138 l 1
 1520 1138 l 1
EndSplineSet
EndChar

StartChar: F
Encoding: 70 70 17
GlifName: F_
Width: 2314
Flags: HMW
LayerCount: 2
Fore
SplineSet
82 3072 m 1
 2192 3072 l 1
 2192 2232 l 1
 2174 2232 l 1
 2174 2670 1976 3056 1496 3056 c 2
 82 3056 l 1
 82 3072 l 1
82 16 m 1
 1250 16 l 1
 1250 0 l 1
 82 0 l 1
 82 16 l 1
450 3072 m 1
 840 3072 l 1
 840 0 l 1
 450 0 l 1
 450 3072 l 1
1560 1098 m 1
 1560 1372 1380 1520 1024 1520 c 2
 758 1520 l 1
 758 1536 l 1
 1024 1536 l 2
 1380 1536 1560 1664 1560 1938 c 1
 1576 1938 l 1
 1576 1098 l 1
 1560 1098 l 1
EndSplineSet
EndChar

StartChar: G
Encoding: 71 71 18
GlifName: G_
Width: 2928
Flags: HMW
LayerCount: 2
Fore
SplineSet
2540 2232 m 1
 2540 2450 2396 2720 2274 2830 c 1
 2524 3072 l 1
 2540 3072 l 1
 2540 2232 l 1
1782 1176 m 1
 2888 1176 l 1
 2888 1160 l 1
 1782 1160 l 1
 1782 1176 l 1
2212 1164 m 1
 2642 1164 l 1
 2642 676 l 1
 2520 418 2184 -40 1516 -40 c 0
 664 -40 184 622 184 1536 c 0
 184 2450 744 3112 1576 3112 c 0
 2100 3112 2540 2736 2540 2232 c 1
 2524 2232 l 1
 2520 2732 2084 3084 1618 3084 c 0
 906 3084 656 2282 656 1536 c 0
 656 790 824 -24 1516 -24 c 0
 2024 -24 2172 422 2212 512 c 1
 2212 1164 l 1
EndSplineSet
EndChar

StartChar: H
Encoding: 72 72 19
GlifName: H_
Width: 3010
Flags: HMW
LayerCount: 2
Fore
SplineSet
758 1524 m 1
 2274 1524 l 1
 2274 1508 l 1
 758 1508 l 1
 758 1524 l 1
1782 16 m 1
 2950 16 l 1
 2950 0 l 1
 1782 0 l 1
 1782 16 l 1
82 16 m 1
 1250 16 l 1
 1250 0 l 1
 82 0 l 1
 82 16 l 1
1782 3072 m 1
 2950 3072 l 1
 2950 3056 l 1
 1782 3056 l 1
 1782 3072 l 1
82 3072 m 1
 1250 3072 l 1
 1250 3056 l 1
 82 3056 l 1
 82 3072 l 1
2192 3072 m 1
 2580 3072 l 1
 2580 0 l 1
 2192 0 l 1
 2192 3072 l 1
450 3072 m 1
 840 3072 l 1
 840 0 l 1
 450 0 l 1
 450 3072 l 1
EndSplineSet
EndChar

StartChar: I
Encoding: 73 73 20
GlifName: I_
Width: 1474
Flags: HMW
LayerCount: 2
Fore
SplineSet
82 16 m 1
 1414 16 l 1
 1414 0 l 1
 82 0 l 1
 82 16 l 1
82 3072 m 1
 1414 3072 l 1
 1414 3056 l 1
 82 3056 l 1
 82 3072 l 1
532 3072 m 1
 922 3072 l 1
 922 0 l 1
 532 0 l 1
 532 3072 l 1
EndSplineSet
EndChar

StartChar: J
Encoding: 74 74 21
GlifName: J_
Width: 1744
Flags: HMW
LayerCount: 2
Fore
SplineSet
352 3072 m 1
 1684 3072 l 1
 1684 3056 l 1
 352 3056 l 1
 352 3072 l 1
884 3072 m 1
 1274 3072 l 1
 1274 696 l 1
 1192 410 1032 -122 536 -122 c 0
 220 -122 62 144 62 348 c 0
 62 520 172 614 294 614 c 0
 396 614 524 540 524 372 c 0
 524 208 406 136 266 136 c 0
 180 136 126 172 118 176 c 1
 158 78 274 -106 536 -106 c 0
 864 -106 884 204 884 778 c 2
 884 3072 l 1
EndSplineSet
Substitution2: "'ss02' Style Set 2 lookup 4-1" J.alt
EndChar

StartChar: K
Encoding: 75 75 22
GlifName: K_
Width: 2784
Flags: HMW
LayerCount: 2
Fore
SplineSet
82 16 m 1
 1250 16 l 1
 1250 0 l 1
 82 0 l 1
 82 16 l 1
82 3072 m 1
 1250 3072 l 1
 1250 3056 l 1
 82 3056 l 1
 82 3072 l 1
450 3072 m 1
 840 3072 l 1
 840 0 l 1
 450 0 l 1
 450 3072 l 1
508 888 m 1
 480 888 l 1
 2094 3064 l 1
 2122 3064 l 1
 508 888 l 1
1496 16 m 1
 2764 16 l 1
 2764 0 l 1
 1496 0 l 1
 1496 16 l 1
2580 3056 m 1
 1598 3056 l 1
 1598 3072 l 1
 2580 3072 l 1
 2580 3056 l 1
2446 0 m 1
 1954 0 l 1
 1036 1622 l 1
 1282 1950 l 1
 2446 0 l 1
EndSplineSet
EndChar

StartChar: L
Encoding: 76 76 23
GlifName: L_
Width: 2334
Flags: HMW
LayerCount: 2
Fore
SplineSet
450 3072 m 1
 840 3072 l 1
 840 0 l 1
 450 0 l 1
 450 3072 l 1
82 3072 m 1
 1208 3072 l 1
 1208 3056 l 1
 82 3056 l 1
 82 3072 l 1
2252 0 m 1
 82 0 l 1
 82 16 l 1
 1474 16 l 2
 2118 16 2236 402 2236 922 c 1
 2252 922 l 1
 2252 0 l 1
EndSplineSet
EndChar

StartChar: M
Encoding: 77 77 24
GlifName: M_
Width: 3378
Flags: HMW
LayerCount: 2
Fore
SplineSet
3318 3072 m 1
 3318 3056 l 1
 3032 3056 l 1
 3032 0 l 1
 2642 0 l 1
 2642 3072 l 1
 3318 3072 l 1
102 16 m 1
 730 16 l 1
 730 0 l 1
 102 0 l 1
 102 16 l 1
2314 16 m 1
 3318 16 l 1
 3318 0 l 1
 2314 0 l 1
 2314 16 l 1
1732 532 m 1
 2634 3072 l 1
 2650 3072 l 1
 1556 -40 l 1
 1540 -40 l 1
 402 3072 l 1
 794 3072 l 1
 1732 532 l 1
394 3056 m 1
 82 3056 l 1
 82 3072 l 1
 414 3072 l 1
 414 0 l 1
 394 0 l 1
 394 3056 l 1
EndSplineSet
EndChar

StartChar: N
Encoding: 78 78 25
GlifName: N_
Width: 2990
Flags: HMW
LayerCount: 2
Fore
SplineSet
2482 3072 m 1
 2498 3072 l 1
 2498 -40 l 1
 2474 -40 l 1
 492 3072 l 1
 962 3072 l 1
 2482 626 l 1
 2482 3072 l 1
1994 3072 m 1
 2928 3072 l 1
 2928 3056 l 1
 1994 3056 l 1
 1994 3072 l 1
82 16 m 1
 1000 16 l 1
 1000 0 l 1
 82 0 l 1
 82 16 l 1
492 3056 m 1
 82 3056 l 1
 82 3072 l 1
 512 3072 l 1
 512 0 l 1
 492 0 l 1
 492 3056 l 1
EndSplineSet
EndChar

StartChar: O
Encoding: 79 79 26
GlifName: O_
Width: 2968
Flags: HMW
LayerCount: 2
Fore
SplineSet
1496 -40 m 0
 664 -40 184 664 184 1536 c 0
 184 2408 706 3112 1496 3112 c 0
 2286 3112 2806 2408 2806 1536 c 0
 2806 664 2328 -40 1496 -40 c 0
1496 3096 m 0
 824 3096 656 2282 656 1536 c 0
 656 790 784 -24 1496 -24 c 0
 2208 -24 2334 790 2334 1536 c 0
 2334 2282 2168 3096 1496 3096 c 0
EndSplineSet
EndChar

StartChar: P
Encoding: 80 80 27
GlifName: P_
Width: 2498
Flags: HMW
LayerCount: 2
Fore
SplineSet
450 3072 m 1
 840 3072 l 1
 840 0 l 1
 450 0 l 1
 450 3072 l 1
82 16 m 1
 1208 16 l 1
 1208 0 l 1
 82 0 l 1
 82 16 l 1
1290 1384 m 2
 758 1384 l 1
 758 1400 l 1
 1290 1400 l 2
 1684 1400 1904 1848 1904 2212 c 0
 1904 2576 1684 3056 1290 3056 c 2
 82 3056 l 1
 82 3072 l 1
 1290 3072 l 2
 2032 3072 2356 2744 2356 2212 c 0
 2356 1680 2032 1384 1290 1384 c 2
EndSplineSet
EndChar

StartChar: Q
Encoding: 81 81 28
GlifName: Q_
Width: 2968
Flags: HMW
LayerCount: 2
Fore
SplineSet
1496 -40 m 0
 664 -40 184 664 184 1536 c 0
 184 2408 706 3112 1496 3112 c 0
 2286 3112 2806 2408 2806 1536 c 0
 2806 664 2328 -40 1496 -40 c 0
1496 3096 m 0
 824 3096 656 2282 656 1536 c 0
 656 790 784 -24 1496 -24 c 0
 2208 -24 2334 790 2334 1536 c 0
 2334 2282 2168 3096 1496 3096 c 0
2192 -1008 m 1
 2192 -1024 l 1
 1320 -1024 1250 -712 1250 -4 c 1
 1394 -40 1576 -40 1720 -4 c 1
 1720 -750 1770 -1008 2192 -1008 c 1
EndSplineSet
EndChar

StartChar: R
Encoding: 82 82 29
GlifName: R_
Width: 2846
Flags: HMW
LayerCount: 2
Fore
SplineSet
1434 1568 m 2
 820 1568 l 1
 820 1586 l 1
 1434 1586 l 2
 1828 1586 2048 1868 2048 2314 c 0
 2048 2760 1828 3056 1434 3056 c 2
 82 3056 l 1
 82 3072 l 1
 1434 3072 l 2
 2052 3072 2458 2846 2458 2314 c 0
 2458 1782 2094 1568 1434 1568 c 2
82 16 m 1
 1372 16 l 1
 1372 0 l 1
 82 0 l 1
 82 16 l 1
532 3072 m 1
 922 3072 l 1
 922 0 l 1
 532 0 l 1
 532 3072 l 1
2806 40 m 1
 2740 4 2614 -20 2438 -20 c 0
 1484 -20 2422 1568 1414 1568 c 2
 820 1568 l 1
 820 1576 l 1
 1496 1576 l 2
 2900 1576 2076 8 2580 8 c 0
 2666 8 2740 34 2798 58 c 1
 2806 40 l 1
EndSplineSet
Substitution2: "'ss01' Style Set 1 lookup 2-1" R.alt
EndChar

StartChar: S
Encoding: 83 83 30
GlifName: S_
Width: 2292
Flags: HMW
LayerCount: 2
Fore
SplineSet
1966 2274 m 1
 1950 2274 l 1
 1868 2836 1544 3088 1114 3088 c 0
 720 3088 512 2876 512 2552 c 0
 512 1794 2130 1962 2130 820 c 0
 2130 288 1766 -62 1188 -62 c 0
 550 -62 282 306 184 798 c 1
 200 798 l 1
 290 318 564 -40 1150 -40 c 0
 1584 -40 1880 196 1880 638 c 0
 1880 1478 226 1292 226 2356 c 0
 226 2806 620 3112 1074 3112 c 0
 1558 3112 1884 2852 1966 2274 c 1
1950 3112 m 1
 1966 3112 l 1
 1966 2274 l 1
 1930 2454 1850 2694 1728 2834 c 1
 1950 3112 l 1
200 -40 m 1
 184 -40 l 1
 184 798 l 1
 242 576 316 388 418 262 c 1
 200 -40 l 1
EndSplineSet
EndChar

StartChar: T
Encoding: 84 84 31
GlifName: T_
Width: 2580
Flags: HMW
LayerCount: 2
Fore
SplineSet
656 16 m 1
 1946 16 l 1
 1946 0 l 1
 656 0 l 1
 656 16 l 1
1106 3068 m 1
 1496 3068 l 1
 1496 0 l 1
 1106 0 l 1
 1106 3068 l 1
1904 3056 m 2
 696 3056 l 2
 216 3056 98 2670 98 2150 c 1
 82 2150 l 1
 82 3072 l 1
 2520 3072 l 1
 2520 2150 l 1
 2502 2150 l 1
 2502 2670 2384 3056 1904 3056 c 2
EndSplineSet
EndChar

StartChar: U
Encoding: 85 85 32
GlifName: U_
Width: 2846
Flags: HMW
LayerCount: 2
Fore
SplineSet
1986 3072 m 1
 2786 3072 l 1
 2786 3056 l 1
 1986 3056 l 1
 1986 3072 l 1
82 3072 m 1
 1250 3072 l 1
 1250 3056 l 1
 82 3056 l 1
 82 3072 l 1
2368 3072 m 1
 2384 3072 l 1
 2384 942 l 2
 2384 266 2122 -62 1474 -62 c 0
 766 -62 450 234 450 942 c 2
 450 3072 l 1
 840 3072 l 1
 840 984 l 2
 840 444 966 -32 1556 -32 c 0
 2096 -32 2368 282 2368 942 c 2
 2368 3072 l 1
EndSplineSet
EndChar

StartChar: V
Encoding: 86 86 33
GlifName: V_
Width: 2968
Flags: HMW
LayerCount: 2
Fore
SplineSet
2928 3056 m 1
 2028 3056 l 1
 2028 3072 l 1
 2928 3072 l 1
 2928 3056 l 1
1250 3056 m 1
 62 3056 l 1
 62 3072 l 1
 1250 3072 l 1
 1250 3056 l 1
1630 500 m 1
 2560 3072 l 1
 2584 3072 l 1
 1450 -62 l 1
 1434 -62 l 1
 348 3072 l 1
 798 3072 l 1
 1630 500 l 1
EndSplineSet
EndChar

StartChar: W
Encoding: 87 87 34
GlifName: W_
Width: 3992
Flags: HMW
LayerCount: 2
Fore
SplineSet
2154 1946 m 1
 1414 -40 l 1
 1392 -40 l 1
 426 3072 l 1
 836 3072 l 1
 1614 574 l 1
 2162 2028 l 1
 2154 1946 l 1
2236 1946 m 1
 2220 1966 l 1
 2592 3072 l 1
 2614 3072 l 1
 2236 1946 l 1
3952 3056 m 1
 3134 3056 l 1
 3134 3072 l 1
 3952 3072 l 1
 3952 3056 l 1
1904 3072 m 1
 2674 574 l 1
 3580 3072 l 1
 3600 3072 l 1
 2482 -40 l 1
 2462 -40 l 1
 1496 3072 l 1
 1904 3072 l 1
2928 3056 m 1
 62 3056 l 1
 62 3072 l 1
 2928 3072 l 1
 2928 3056 l 1
EndSplineSet
EndChar

StartChar: X
Encoding: 88 88 35
GlifName: X_
Width: 3010
Flags: HMW
LayerCount: 2
Fore
SplineSet
1532 1544 m 1
 1504 1544 l 1
 2380 3064 l 1
 2400 3064 l 1
 1532 1544 l 1
528 0 m 1
 500 0 l 1
 1548 1708 l 1
 1576 1708 l 1
 528 0 l 1
1822 16 m 1
 2970 16 l 1
 2970 0 l 1
 1822 0 l 1
 1822 16 l 1
62 16 m 1
 1044 16 l 1
 1044 0 l 1
 62 0 l 1
 62 16 l 1
1352 3056 m 1
 204 3056 l 1
 204 3072 l 1
 1352 3072 l 1
 1352 3056 l 1
2744 3056 m 1
 1844 3056 l 1
 1844 3072 l 1
 2744 3072 l 1
 2744 3056 l 1
2708 0 m 1
 2216 0 l 1
 450 3072 l 1
 926 3072 l 1
 2708 0 l 1
EndSplineSet
EndChar

StartChar: Y
Encoding: 89 89 36
GlifName: Y_
Width: 2908
Flags: HMW
LayerCount: 2
Fore
SplineSet
2868 3056 m 1
 2008 3056 l 1
 2008 3072 l 1
 2868 3072 l 1
 2868 3056 l 1
1250 3056 m 1
 62 3056 l 1
 62 3072 l 1
 1250 3072 l 1
 1250 3056 l 1
942 16 m 1
 2110 16 l 1
 2110 0 l 1
 942 0 l 1
 942 16 l 1
1688 1586 m 1
 2494 3064 l 1
 2520 3064 l 1
 1700 1568 l 1
 1700 0 l 1
 1310 0 l 1
 1310 1474 l 1
 344 3072 l 1
 794 3072 l 1
 1688 1586 l 1
EndSplineSet
EndChar

StartChar: Z
Encoding: 90 90 37
GlifName: Z_
Width: 2292
Flags: HMW
LayerCount: 2
Fore
SplineSet
144 3072 m 1
 2110 3072 l 1
 2110 3056 l 1
 492 16 l 1
 1414 16 l 2
 1976 16 2134 258 2134 778 c 1
 2150 778 l 1
 2150 0 l 1
 62 0 l 1
 62 16 l 1
 1680 3056 l 1
 880 3056 l 2
 318 3056 160 2814 160 2376 c 1
 144 2376 l 1
 144 3072 l 1
EndSplineSet
EndChar

StartChar: a
Encoding: 97 97 38
GlifName: a
Width: 2134
VWidth: 4730
Flags: HMW
LayerCount: 2
Fore
SplineSet
2138 258 m 1
 2044 54 1872 -40 1696 -40 c 0
 1504 -40 1318 22 1318 300 c 2
 1318 1250 l 2
 1318 1524 1286 1888 958 1888 c 0
 704 1888 504 1790 422 1696 c 1
 640 1770 766 1640 766 1508 c 0
 766 1344 626 1274 524 1274 c 0
 402 1274 312 1352 312 1500 c 0
 312 1754 668 1916 1040 1916 c 0
 1654 1916 1688 1582 1688 1250 c 2
 1688 176 l 2
 1688 78 1738 20 1836 20 c 0
 1910 20 2044 94 2122 262 c 1
 2138 258 l 1
1064 1036 m 2
 1532 1036 l 1
 1532 1020 l 1
 1064 1020 l 2
 752 1020 586 774 586 484 c 0
 586 214 684 20 872 20 c 0
 1114 20 1318 222 1318 742 c 1
 1332 742 l 1
 1332 234 1174 -40 720 -40 c 0
 396 -40 168 158 168 462 c 0
 168 806 446 1036 1064 1036 c 2
EndSplineSet
EndChar

StartChar: b
Encoding: 98 98 39
GlifName: b
Width: 2350
VWidth: 4730
Flags: HMW
LayerCount: 2
Fore
SplineSet
692 942 m 0
 692 1564 926 1922 1344 1922 c 0
 1790 1922 2212 1556 2212 942 c 0
 2212 328 1790 -40 1344 -40 c 0
 926 -40 692 320 692 942 c 0
704 942 m 0
 704 316 962 0 1278 0 c 0
 1622 0 1782 394 1782 942 c 0
 1782 1490 1622 1880 1278 1880 c 0
 962 1880 704 1568 704 942 c 0
336 3056 m 1
 86 3056 l 1
 86 3072 l 1
 704 3072 l 1
 704 0 l 1
 86 0 l 1
 86 16 l 1
 336 16 l 1
 336 3056 l 1
EndSplineSet
EndChar

StartChar: c
Encoding: 99 99 40
GlifName: c
Width: 1978
VWidth: 4730
Flags: HMW
LayerCount: 2
Fore
SplineSet
1754 1486 m 1
 1708 1744 1446 1904 1146 1904 c 0
 658 1904 578 1328 578 942 c 0
 578 476 664 -16 1110 -16 c 0
 1474 -16 1692 242 1798 586 c 1
 1818 586 l 1
 1712 230 1496 -40 1082 -40 c 0
 546 -40 148 328 148 942 c 0
 148 1474 488 1926 1106 1926 c 0
 1524 1926 1786 1690 1786 1396 c 0
 1786 1228 1674 1142 1552 1142 c 0
 1450 1142 1318 1208 1318 1372 c 0
 1318 1516 1434 1598 1552 1598 c 0
 1650 1598 1738 1536 1754 1486 c 1
EndSplineSet
EndChar

StartChar: d
Encoding: 100 100 41
GlifName: d
Width: 2350
VWidth: 4730
Flags: HMW
LayerCount: 2
Fore
SplineSet
1668 942 m 0
 1668 320 1434 -40 1016 -40 c 0
 570 -40 148 328 148 942 c 0
 148 1556 570 1922 1016 1922 c 0
 1434 1922 1668 1564 1668 942 c 0
1654 942 m 0
 1654 1568 1394 1880 1078 1880 c 0
 734 1880 578 1490 578 942 c 0
 578 394 734 0 1078 0 c 0
 1394 0 1654 316 1654 942 c 0
2274 16 m 1
 2274 0 l 1
 1654 0 l 1
 1654 3056 l 1
 1400 3056 l 1
 1400 3072 l 1
 2024 3072 l 1
 2024 16 l 1
 2274 16 l 1
EndSplineSet
EndChar

StartChar: e
Encoding: 101 101 42
GlifName: e
Width: 2060
VWidth: 4730
Flags: HMW
LayerCount: 2
Fore
SplineSet
422 1060 m 1
 422 1078 l 1
 1504 1078 l 1
 1504 1394 1454 1908 1090 1908 c 0
 684 1908 578 1408 578 942 c 0
 578 476 684 -20 1130 -20 c 0
 1548 -20 1820 250 1922 586 c 1
 1942 586 l 1
 1836 230 1556 -40 1102 -40 c 0
 566 -40 148 328 148 942 c 0
 148 1556 554 1926 1090 1926 c 0
 1700 1926 1938 1506 1938 1060 c 1
 422 1060 l 1
EndSplineSet
EndChar

StartChar: f
Encoding: 102 102 43
GlifName: f
Width: 1432
VWidth: 4730
Flags: HMW
LayerCount: 2
Fore
SplineSet
66 16 m 1
 1224 16 l 1
 1224 0 l 1
 66 0 l 1
 66 16 l 1
66 1884 m 1
 1306 1884 l 1
 1306 1868 l 1
 66 1868 l 1
 66 1884 l 1
1676 2756 m 1
 1652 2916 1512 3096 1204 3096 c 0
 876 3096 766 2732 766 2212 c 2
 766 0 l 1
 398 0 l 1
 398 2098 l 2
 398 2634 672 3112 1204 3112 c 0
 1536 3112 1708 2900 1708 2708 c 0
 1708 2540 1596 2454 1474 2454 c 0
 1372 2454 1246 2518 1246 2678 c 0
 1246 2838 1356 2904 1482 2904 c 0
 1572 2904 1648 2850 1676 2756 c 1
EndSplineSet
EndChar

StartChar: g
Encoding: 103 103 44
GlifName: g
Width: 2284
VWidth: 4730
Flags: HMW
LayerCount: 2
Fore
SplineSet
218 304 m 0
 218 608 618 696 934 696 c 1
 934 688 l 1
 758 688 496 614 496 434 c 0
 496 282 666 282 892 282 c 0
 1036 282 1070 286 1184 286 c 0
 1492 286 1826 222 1826 -336 c 0
 1826 -832 1416 -1064 966 -1064 c 0
 504 -1064 86 -902 86 -512 c 0
 86 -140 488 -24 672 -24 c 2
 680 -24 l 1
 496 -126 476 -286 476 -418 c 0
 476 -696 614 -1044 1008 -1044 c 0
 1422 -1044 1766 -810 1766 -434 c 0
 1766 -140 1478 -36 1212 -36 c 0
 1126 -36 918 -36 828 -36 c 0
 460 -36 218 50 218 304 c 0
578 1290 m 0
 578 986 598 696 922 696 c 0
 1164 696 1266 986 1266 1290 c 0
 1266 1594 1164 1908 922 1908 c 0
 680 1908 578 1594 578 1290 c 0
188 1290 m 0
 188 1740 590 1926 922 1926 c 0
 1254 1926 1654 1740 1654 1290 c 0
 1654 840 1254 680 922 680 c 0
 590 680 188 840 188 1290 c 0
2204 1654 m 1
 2192 1776 2092 1888 1904 1888 c 0
 1736 1888 1492 1770 1410 1414 c 1
 1392 1422 l 1
 1474 1794 1740 1904 1904 1904 c 0
 2112 1904 2228 1770 2228 1614 c 0
 2228 1430 2122 1368 2020 1368 c 0
 1918 1368 1814 1436 1814 1572 c 0
 1814 1686 1910 1766 2024 1766 c 0
 2106 1766 2188 1724 2204 1654 c 1
EndSplineSet
EndChar

StartChar: h
Encoding: 104 104 45
GlifName: h
Width: 2284
VWidth: 4730
Flags: HMW
LayerCount: 2
Fore
SplineSet
1586 1262 m 2
 1586 1606 1554 1892 1324 1892 c 0
 758 1892 704 1286 704 914 c 1
 692 898 l 1
 692 1292 728 1926 1372 1926 c 0
 1852 1926 1954 1662 1954 1306 c 2
 1954 0 l 1
 1586 0 l 1
 1586 1262 l 2
1336 16 m 1
 2208 16 l 1
 2208 0 l 1
 1336 0 l 1
 1336 16 l 1
86 16 m 1
 958 16 l 1
 958 0 l 1
 86 0 l 1
 86 16 l 1
336 3056 m 1
 86 3056 l 1
 86 3072 l 1
 704 3072 l 1
 704 0 l 1
 336 0 l 1
 336 3056 l 1
EndSplineSet
EndChar

StartChar: i
Encoding: 105 105 46
GlifName: i
Width: 1076
VWidth: 4730
Flags: HMW
LayerCount: 2
Fore
SplineSet
106 16 m 1
 978 16 l 1
 978 0 l 1
 106 0 l 1
 106 16 l 1
254 2868 m 0
 254 3004 364 3112 500 3112 c 0
 636 3112 746 3004 746 2868 c 0
 746 2732 636 2622 500 2622 c 0
 364 2622 254 2732 254 2868 c 0
356 1868 m 1
 106 1868 l 1
 106 1884 l 1
 724 1884 l 1
 724 0 l 1
 356 0 l 1
 356 1868 l 1
EndSplineSet
EndChar

StartChar: j
Encoding: 106 106 47
GlifName: j
Width: 1096
VWidth: 4730
Flags: HMW
LayerCount: 2
Fore
SplineSet
324 2868 m 0
 324 3004 434 3112 570 3112 c 0
 706 3112 816 3004 816 2868 c 0
 816 2732 706 2622 570 2622 c 0
 434 2622 324 2732 324 2868 c 0
786 1884 m 1
 786 -50 l 2
 786 -586 676 -1064 144 -1064 c 0
 -188 -1064 -360 -852 -360 -618 c 0
 -360 -450 -248 -364 -126 -364 c 0
 -24 -364 102 -422 102 -586 c 0
 102 -750 -16 -816 -156 -816 c 0
 -242 -816 -316 -742 -328 -668 c 1
 -328 -848 -156 -1044 122 -1044 c 0
 490 -1044 418 -438 418 82 c 2
 418 1868 l 1
 86 1868 l 1
 86 1884 l 1
 786 1884 l 1
EndSplineSet
EndChar

StartChar: k
Encoding: 107 107 48
GlifName: k
Width: 2322
VWidth: 4730
Flags: HMW
LayerCount: 2
Fore
SplineSet
2130 0 m 1
 1668 0 l 1
 754 1070 l 1
 1786 1884 l 1
 1810 1884 l 1
 1048 1274 l 1
 2130 0 l 1
1352 16 m 1
 2286 16 l 1
 2286 0 l 1
 1352 0 l 1
 1352 16 l 1
2146 1868 m 1
 1302 1868 l 1
 1302 1884 l 1
 2146 1884 l 1
 2146 1868 l 1
86 16 m 1
 1074 16 l 1
 1074 0 l 1
 86 0 l 1
 86 16 l 1
418 3056 m 1
 86 3056 l 1
 86 3072 l 1
 786 3072 l 1
 786 0 l 1
 418 0 l 1
 418 3056 l 1
EndSplineSet
EndChar

StartChar: l
Encoding: 108 108 49
GlifName: l
Width: 1200
VWidth: 4730
Flags: HMW
LayerCount: 2
Fore
SplineSet
86 16 m 1
 1122 16 l 1
 1122 0 l 1
 86 0 l 1
 86 16 l 1
418 3056 m 1
 86 3056 l 1
 86 3072 l 1
 786 3072 l 1
 786 0 l 1
 418 0 l 1
 418 3056 l 1
EndSplineSet
EndChar

StartChar: m
Encoding: 109 109 50
GlifName: m
Width: 3370
VWidth: 4730
Flags: HMW
LayerCount: 2
Fore
SplineSet
1872 1306 m 2
 1872 0 l 1
 1504 0 l 1
 1504 1262 l 2
 1504 1606 1496 1892 1266 1892 c 0
 782 1892 704 1286 704 914 c 1
 692 898 l 1
 692 1292 740 1926 1310 1926 c 0
 1736 1926 1872 1662 1872 1306 c 2
86 16 m 1
 958 16 l 1
 958 0 l 1
 86 0 l 1
 86 16 l 1
1254 16 m 1
 2126 16 l 1
 2126 0 l 1
 1254 0 l 1
 1254 16 l 1
2420 16 m 1
 3294 16 l 1
 3294 0 l 1
 2420 0 l 1
 2420 16 l 1
336 1868 m 1
 86 1868 l 1
 86 1884 l 1
 704 1884 l 1
 704 0 l 1
 336 0 l 1
 336 1868 l 1
3040 1306 m 2
 3040 0 l 1
 2670 0 l 1
 2670 1262 l 2
 2670 1606 2658 1892 2428 1892 c 0
 1940 1892 1872 1286 1872 914 c 1
 1852 898 l 1
 1852 1292 1900 1926 2474 1926 c 0
 2900 1926 3040 1662 3040 1306 c 2
EndSplineSet
EndChar

StartChar: n
Encoding: 110 110 51
GlifName: n
Width: 2284
VWidth: 4730
Flags: HMW
LayerCount: 2
Fore
SplineSet
1586 1262 m 2
 1586 1606 1554 1892 1324 1892 c 0
 766 1892 704 1286 704 914 c 1
 692 898 l 1
 692 1292 734 1926 1372 1926 c 0
 1848 1926 1954 1662 1954 1306 c 2
 1954 0 l 1
 1586 0 l 1
 1586 1262 l 2
1336 16 m 1
 2208 16 l 1
 2208 0 l 1
 1336 0 l 1
 1336 16 l 1
86 16 m 1
 958 16 l 1
 958 0 l 1
 86 0 l 1
 86 16 l 1
336 1868 m 1
 86 1868 l 1
 86 1884 l 1
 704 1884 l 1
 704 0 l 1
 336 0 l 1
 336 1868 l 1
EndSplineSet
EndChar

StartChar: o
Encoding: 111 111 52
GlifName: o
Width: 2162
VWidth: 4730
Flags: HMW
LayerCount: 2
Fore
SplineSet
578 942 m 0
 578 556 640 -24 1086 -24 c 0
 1532 -24 1594 556 1594 942 c 0
 1594 1328 1532 1908 1086 1908 c 0
 640 1908 578 1328 578 942 c 0
148 942 m 0
 148 1474 508 1926 1086 1926 c 0
 1664 1926 2024 1474 2024 942 c 0
 2024 410 1664 -40 1086 -40 c 0
 508 -40 148 410 148 942 c 0
EndSplineSet
EndChar

StartChar: p
Encoding: 112 112 53
GlifName: p
Width: 2350
VWidth: 4730
Flags: HMW
LayerCount: 2
Fore
SplineSet
692 942 m 0
 692 1564 926 1922 1344 1922 c 0
 1790 1922 2212 1556 2212 942 c 0
 2212 328 1790 -40 1344 -40 c 0
 926 -40 692 320 692 942 c 0
704 942 m 0
 704 316 962 0 1278 0 c 0
 1622 0 1782 394 1782 942 c 0
 1782 1490 1622 1880 1278 1880 c 0
 962 1880 704 1568 704 942 c 0
86 -1008 m 1
 958 -1008 l 1
 958 -1024 l 1
 86 -1024 l 1
 86 -1008 l 1
336 1868 m 1
 86 1868 l 1
 86 1884 l 1
 704 1884 l 1
 704 -1024 l 1
 336 -1024 l 1
 336 1868 l 1
EndSplineSet
EndChar

StartChar: q
Encoding: 113 113 54
GlifName: q
Width: 2350
VWidth: 4730
Flags: HMW
LayerCount: 2
Fore
SplineSet
1668 942 m 0
 1668 320 1434 -40 1016 -40 c 0
 570 -40 148 328 148 942 c 0
 148 1556 570 1922 1016 1922 c 0
 1434 1922 1668 1564 1668 942 c 0
1654 942 m 0
 1654 1568 1394 1880 1078 1880 c 0
 734 1880 578 1490 578 942 c 0
 578 394 734 0 1078 0 c 0
 1394 0 1654 316 1654 942 c 0
2274 -1008 m 1
 2274 -1024 l 1
 1400 -1024 l 1
 1400 -1008 l 1
 2274 -1008 l 1
2274 1884 m 1
 2274 1868 l 1
 2024 1868 l 1
 2024 -1024 l 1
 1654 -1024 l 1
 1654 1884 l 1
 2274 1884 l 1
EndSplineSet
EndChar

StartChar: r
Encoding: 114 114 55
GlifName: r
Width: 1630
VWidth: 4730
Flags: HMW
LayerCount: 2
Fore
SplineSet
1548 1696 m 1
 1494 1844 1348 1908 1216 1908 c 0
 774 1908 704 1390 704 914 c 1
 692 914 l 1
 692 1414 762 1926 1216 1926 c 0
 1404 1926 1594 1794 1594 1594 c 0
 1594 1454 1512 1344 1356 1344 c 0
 1220 1344 1114 1416 1114 1568 c 0
 1114 1802 1434 1892 1548 1696 c 1
86 16 m 1
 958 16 l 1
 958 0 l 1
 86 0 l 1
 86 16 l 1
336 1868 m 1
 86 1868 l 1
 86 1884 l 1
 704 1884 l 1
 704 0 l 1
 336 0 l 1
 336 1868 l 1
EndSplineSet
EndChar

StartChar: s
Encoding: 115 115 56
GlifName: s
Width: 1720
VWidth: 4730
Flags: HMW
LayerCount: 2
Fore
SplineSet
1400 1564 m 1
 1368 1618 1308 1690 1262 1736 c 1
 1450 1926 l 1
 1466 1926 l 1
 1466 1352 l 1
 1454 1352 l 1
 1450 1422 1432 1506 1400 1564 c 1
1462 1352 m 1
 1446 1352 l 1
 1442 1610 1170 1904 794 1904 c 0
 564 1904 376 1798 376 1594 c 0
 376 1110 1602 1312 1602 582 c 0
 1602 218 1300 -40 902 -40 c 0
 516 -40 188 212 168 532 c 1
 184 532 l 1
 200 232 528 -20 876 -20 c 0
 1122 -20 1376 78 1376 364 c 0
 1376 884 218 610 218 1372 c 0
 218 1634 400 1922 790 1922 c 0
 1192 1922 1462 1622 1462 1352 c 1
180 -40 m 1
 168 -40 l 1
 168 532 l 1
 184 532 l 1
 192 400 222 378 246 316 c 1
 286 258 340 184 376 156 c 1
 180 -40 l 1
EndSplineSet
EndChar

StartChar: t
Encoding: 116 116 57
GlifName: t
Width: 1290
VWidth: 4730
Flags: HMW
LayerCount: 2
Fore
SplineSet
46 1884 m 1
 1150 1884 l 1
 1150 1868 l 1
 46 1868 l 1
 46 1884 l 1
1274 418 m 1
 1176 156 966 -28 716 -28 c 0
 380 -28 344 228 344 454 c 2
 344 2294 l 1
 466 2294 630 2354 712 2416 c 1
 712 304 l 2
 712 100 758 46 868 46 c 0
 1020 46 1180 226 1258 422 c 1
 1274 418 l 1
EndSplineSet
EndChar

StartChar: u
Encoding: 117 117 58
GlifName: u
Width: 2284
VWidth: 4730
Flags: HMW
LayerCount: 2
Fore
SplineSet
704 1884 m 1
 704 622 l 2
 704 278 736 -8 966 -8 c 0
 1524 -8 1586 598 1586 970 c 1
 1602 988 l 1
 1602 594 1556 -40 918 -40 c 0
 442 -40 336 222 336 578 c 2
 336 1868 l 1
 86 1868 l 1
 86 1884 l 1
 704 1884 l 1
1954 16 m 1
 2208 16 l 1
 2208 0 l 1
 1586 0 l 1
 1586 1868 l 1
 1298 1868 l 1
 1298 1884 l 1
 1954 1884 l 1
 1954 16 l 1
EndSplineSet
EndChar

StartChar: v
Encoding: 118 118 59
GlifName: v
Width: 2170
VWidth: 4730
Flags: HMW
LayerCount: 2
Fore
SplineSet
2142 1868 m 1
 1418 1868 l 1
 1418 1884 l 1
 2142 1884 l 1
 2142 1868 l 1
1004 1868 m 1
 4 1868 l 1
 4 1884 l 1
 1004 1884 l 1
 1004 1868 l 1
1208 422 m 1
 1814 1884 l 1
 1840 1884 l 1
 1044 -40 l 1
 1024 -40 l 1
 234 1884 l 1
 644 1884 l 1
 1208 422 l 1
EndSplineSet
EndChar

StartChar: w
Encoding: 119 119 60
GlifName: w
Width: 3054
VWidth: 4730
Flags: HMW
LayerCount: 2
Fore
SplineSet
962 1868 m 1
 4 1868 l 1
 4 1884 l 1
 962 1884 l 1
 962 1868 l 1
3026 1868 m 1
 2220 1868 l 1
 2220 1884 l 1
 3026 1884 l 1
 3026 1868 l 1
1070 450 m 1
 1708 1926 l 1
 1728 1926 l 1
 2174 516 l 1
 2630 1884 l 1
 2654 1884 l 1
 2012 -40 l 1
 1990 -40 l 1
 1486 1364 l 1
 880 -40 l 1
 860 -40 l 1
 234 1884 l 1
 618 1884 l 1
 1070 450 l 1
EndSplineSet
EndChar

StartChar: x
Encoding: 120 120 61
GlifName: x
Width: 2198
VWidth: 4730
Flags: HMW
LayerCount: 2
Fore
SplineSet
1318 16 m 1
 2162 16 l 1
 2162 0 l 1
 1318 0 l 1
 1318 16 l 1
46 16 m 1
 754 16 l 1
 754 0 l 1
 46 0 l 1
 46 16 l 1
1024 1868 m 1
 86 1868 l 1
 86 1884 l 1
 1024 1884 l 1
 1024 1868 l 1
2102 1868 m 1
 1410 1868 l 1
 1410 1884 l 1
 2102 1884 l 1
 2102 1868 l 1
2012 0 m 1
 1560 0 l 1
 274 1884 l 1
 724 1884 l 1
 2012 0 l 1
328 0 m 1
 304 0 l 1
 1774 1884 l 1
 1798 1884 l 1
 328 0 l 1
EndSplineSet
EndChar

StartChar: y
Encoding: 121 121 62
GlifName: y
Width: 2174
VWidth: 4730
Flags: HMW
LayerCount: 2
Fore
SplineSet
926 1868 m 1
 4 1868 l 1
 4 1884 l 1
 926 1884 l 1
 926 1868 l 1
2220 1868 m 1
 1564 1868 l 1
 1564 1884 l 1
 2220 1884 l 1
 2220 1868 l 1
1328 386 m 1
 1130 -82 l 1
 188 1884 l 1
 598 1884 l 1
 1328 386 l 1
802 -860 m 1
 1930 1884 l 1
 1954 1884 l 1
 848 -812 l 2
 774 -980 718 -1082 562 -1082 c 0
 460 -1082 332 -1016 332 -860 c 0
 332 -724 426 -630 558 -630 c 0
 684 -630 782 -716 802 -860 c 1
EndSplineSet
EndChar

StartChar: z
Encoding: 122 122 63
GlifName: z
Width: 1802
VWidth: 4730
Flags: HMW
LayerCount: 2
Fore
SplineSet
786 1868 m 2
 320 1868 196 1594 196 1180 c 1
 180 1180 l 1
 180 1884 l 1
 1658 1884 l 1
 1658 1868 l 1
 508 16 l 1
 1024 16 l 2
 1586 16 1704 246 1704 754 c 1
 1724 754 l 1
 1724 0 l 1
 66 0 l 1
 66 16 l 1
 1212 1868 l 1
 786 1868 l 2
EndSplineSet
EndChar

StartChar: comma
Encoding: 44 44 65
GlifName: comma
Width: 880
Flags: HMW
LayerCount: 2
Fore
SplineSet
164 200 m 0
 164 336 282 442 438 442 c 0
 598 442 724 316 724 16 c 0
 724 -270 524 -606 156 -606 c 1
 156 -590 l 1
 508 -590 770 -242 684 192 c 1
 656 66 562 -40 418 -40 c 0
 246 -40 164 64 164 200 c 0
EndSplineSet
EndChar

StartChar: exclam
Encoding: 33 33 67
GlifName: exclam
Width: 1310
Flags: HMW
LayerCount: 2
Fore
SplineSet
892 2700 m 0
 846 1980 660 1466 660 852 c 1
 644 852 l 1
 644 1466 456 1980 410 2700 c 0
 410 2728 410 2754 410 2778 c 0
 410 2966 460 3104 652 3104 c 0
 844 3104 898 2966 898 2778 c 0
 898 2754 892 2728 892 2700 c 0
EndSplineSet
Refer: 1 46 N 1 0 0 1 246 0 2
EndChar

StartChar: quotesingle
Encoding: 39 39 70
GlifName: quotesingle
Width: 818
Flags: HMW
LayerCount: 2
Fore
SplineSet
610 2790 m 24
 564 2482 418 2448 418 1998 c 1
 402 1998 l 1
 402 2448 254 2482 208 2790 c 24
 204 2818 204 2840 204 2864 c 0
 204 3024 292 3112 410 3112 c 0
 528 3112 614 3024 614 2864 c 0
 614 2840 614 2818 610 2790 c 24
EndSplineSet
EndChar

StartChar: question
Encoding: 63 63 75
GlifName: question
Width: 2252
Flags: HMW
LayerCount: 2
Fore
SplineSet
1004 1430 m 1
 1442 1520 1634 1914 1634 2294 c 0
 1634 2680 1552 3092 1064 3092 c 0
 618 3092 302 2736 278 2498 c 1
 294 2548 362 2622 480 2622 c 0
 598 2622 712 2540 712 2396 c 0
 712 2232 582 2166 480 2166 c 0
 358 2166 246 2252 246 2420 c 0
 246 2756 632 3112 1090 3112 c 0
 1668 3112 2048 2786 2048 2294 c 0
 2048 1822 1598 1454 1020 1418 c 1
 1020 856 l 1
 1004 856 l 1
 1004 1430 l 1
EndSplineSet
Refer: 1 46 N 1 0 0 1 610 0 2
EndChar

StartChar: parenleft
Encoding: 40 40 76
GlifName: parenleft
Width: 1482
Flags: HMW
LayerCount: 2
Fore
SplineSet
1414 -680 m 1
 1404 -696 l 1
 736 -410 266 378 266 1332 c 0
 266 2286 736 2990 1404 3276 c 1
 1414 3260 l 1
 906 2932 656 2118 656 1332 c 0
 656 546 906 -352 1414 -680 c 1
EndSplineSet
EndChar

StartChar: at
Encoding: 64 64 79
GlifName: at
Width: 4136
VWidth: 4730
Flags: HMW
LayerCount: 2
Fore
SplineSet
2524 1422 m 0
 2524 832 2188 286 1778 286 c 0
 1454 286 1164 516 1164 942 c 0
 1164 1556 1634 2166 2122 2166 c 0
 2454 2166 2524 1758 2524 1422 c 0
2510 1418 m 0
 2510 1590 2494 2138 2150 2138 c 0
 1846 2138 1576 1418 1576 910 c 0
 1576 636 1638 316 1826 316 c 0
 2174 316 2510 856 2510 1418 c 0
2416 860 m 2
 2712 2130 l 1
 3080 2130 l 1
 2786 860 l 2
 2774 806 2588 312 2904 312 c 0
 3498 312 3896 994 3896 1642 c 0
 3896 2380 3420 3220 2392 3220 c 0
 1208 3220 242 2138 242 864 c 0
 242 -410 978 -860 1716 -860 c 0
 2384 -860 2854 -652 3198 -250 c 1
 3216 -262 l 1
 2872 -664 2384 -876 1716 -876 c 0
 966 -876 226 -422 226 864 c 0
 226 2146 1196 3236 2396 3236 c 0
 3432 3236 3912 2392 3912 1642 c 0
 3912 986 3530 278 2830 278 c 0
 2466 278 2358 606 2416 860 c 2
EndSplineSet
EndChar

StartChar: dollar
Encoding: 36 36 80
GlifName: dollar
Width: 2272
Flags: HMW
LayerCount: 2
Fore
SplineSet
1294 3400 m 1
 1314 3400 l 1
 1314 -328 l 1
 1294 -328 l 1
 1294 3400 l 1
934 3400 m 1
 954 3400 l 1
 954 -328 l 1
 934 -328 l 1
 934 3400 l 1
2002 2506 m 1
 1990 2818 1666 3096 1216 3096 c 0
 782 3096 532 2802 532 2478 c 0
 532 1720 2110 1966 2110 860 c 0
 2110 286 1708 -62 1130 -62 c 0
 414 -62 122 328 122 594 c 0
 122 782 230 930 410 930 c 0
 532 930 672 840 672 660 c 0
 672 496 538 394 398 394 c 0
 288 394 184 470 152 528 c 1
 192 320 434 -46 1126 -46 c 0
 1560 -46 1822 270 1822 676 c 0
 1822 1516 246 1250 246 2314 c 0
 246 2806 716 3112 1212 3112 c 0
 1692 3112 2028 2810 2028 2478 c 0
 2028 2290 1920 2142 1740 2142 c 0
 1618 2142 1478 2232 1478 2412 c 0
 1478 2576 1614 2678 1754 2678 c 0
 1872 2678 1978 2592 2002 2506 c 1
EndSplineSet
EndChar

StartChar: numbersign
Encoding: 35 35 81
GlifName: numbersign
Width: 2580
Flags: HMW
LayerCount: 2
Fore
SplineSet
122 1032 m 1
 2334 1032 l 1
 2334 1012 l 1
 122 1012 l 1
 122 1032 l 1
246 2122 m 1
 2458 2122 l 1
 2458 2102 l 1
 246 2102 l 1
 246 2122 l 1
1852 3088 m 1
 1872 3092 l 1
 1462 -20 l 1
 1442 -24 l 1
 1852 3088 l 1
1078 3092 m 1
 1098 3092 l 1
 688 -20 l 1
 668 -20 l 1
 1078 3092 l 1
EndSplineSet
EndChar

StartChar: slash
Encoding: 47 47 82
GlifName: slash
Width: 2128
Flags: HMW
LayerCount: 2
Fore
SplineSet
1950 3194 m 1
 1966 3194 l 1
 180 -614 l 1
 164 -614 l 1
 1950 3194 l 1
EndSplineSet
EndChar

StartChar: percent
Encoding: 37 37 83
GlifName: percent
Width: 4096
Flags: HMW
LayerCount: 2
Fore
SplineSet
2764 860 m 0
 2764 442 2830 -24 3134 -24 c 0
 3438 -24 3502 442 3502 860 c 0
 3502 1278 3438 1744 3134 1744 c 0
 2830 1744 2764 1278 2764 860 c 0
2314 860 m 0
 2314 1446 2672 1762 3134 1762 c 0
 3596 1762 3952 1446 3952 860 c 0
 3952 274 3514 -40 3134 -40 c 0
 2672 -40 2314 274 2314 860 c 0
3112 3072 m 1
 3134 3072 l 1
 984 0 l 1
 962 0 l 1
 3112 3072 l 1
594 2212 m 0
 594 1794 658 1328 962 1328 c 0
 1266 1328 1332 1794 1332 2212 c 0
 1332 2630 1266 3096 962 3096 c 0
 658 3096 594 2630 594 2212 c 0
144 2212 m 0
 144 2798 500 3112 962 3112 c 0
 1424 3112 1782 2798 1782 2212 c 0
 1782 1626 1342 1310 962 1310 c 0
 500 1310 144 1626 144 2212 c 0
EndSplineSet
EndChar

StartChar: hyphen
Encoding: 45 45 85
GlifName: hyphen
Width: 1474
Flags: HMW
LayerCount: 2
Fore
SplineSet
246 1134 m 1
 1228 1134 l 1
 1228 1118 l 1
 246 1118 l 1
 246 1134 l 1
EndSplineSet
EndChar

StartChar: plus
Encoding: 43 43 87
GlifName: plus
Width: 2170
Flags: HMW
LayerCount: 2
Fore
SplineSet
1078 450 m 1
 1078 2130 l 1
 1094 2130 l 1
 1094 450 l 1
 1078 450 l 1
246 1302 m 1
 1926 1302 l 1
 1926 1286 l 1
 246 1286 l 1
 246 1302 l 1
EndSplineSet
EndChar

StartChar: less
Encoding: 60 60 89
GlifName: less
Width: 2292
Flags: HMW
LayerCount: 2
Fore
SplineSet
246 1582 m 1
 246 1598 l 1
 2048 2458 l 1
 2048 2442 l 1
 246 1582 l 1
246 1576 m 1
 246 1594 l 1
 2048 734 l 1
 2048 716 l 1
 246 1576 l 1
EndSplineSet
EndChar

StartChar: backslash
Encoding: 92 92 91
GlifName: backslash
Width: 2128
Flags: HMW
LayerCount: 2
Fore
SplineSet
184 3194 m 1
 1966 -614 l 1
 1946 -614 l 1
 164 3194 l 1
 184 3194 l 1
EndSplineSet
EndChar

StartChar: bracketleft
Encoding: 91 91 92
GlifName: bracketleft
Width: 1330
Flags: HMW
LayerCount: 2
Fore
SplineSet
1208 -614 m 1
 226 -614 l 1
 226 -598 l 1
 1208 -598 l 1
 1208 -614 l 1
1208 3178 m 1
 226 3178 l 1
 226 3194 l 1
 1208 3194 l 1
 1208 3178 l 1
594 3194 m 1
 594 -614 l 1
 226 -614 l 1
 226 3194 l 1
 594 3194 l 1
EndSplineSet
EndChar

StartChar: braceleft
Encoding: 123 123 93
GlifName: braceleft
Width: 1114
VWidth: 4730
Flags: HMW
LayerCount: 2
Fore
SplineSet
992 3194 m 1
 992 3178 l 1
 738 3178 606 2908 606 2650 c 0
 606 2338 746 2176 746 1766 c 0
 746 1426 530 1368 226 1286 c 1
 226 1302 l 1
 348 1342 472 1454 472 1622 c 0
 472 1880 226 2064 226 2626 c 0
 226 2990 398 3194 992 3194 c 1
992 -614 m 1
 398 -614 226 -404 226 -40 c 0
 226 522 472 704 472 962 c 0
 472 1130 348 1242 226 1282 c 1
 226 1298 l 1
 530 1216 746 1160 746 820 c 0
 746 410 606 246 606 -66 c 0
 606 -324 738 -598 992 -598 c 1
 992 -614 l 1
EndSplineSet
EndChar

StartChar: bar
Encoding: 124 124 96
GlifName: bar
Width: 942
VWidth: 4730
Flags: HMW
LayerCount: 2
Fore
SplineSet
462 3194 m 1
 480 3194 l 1
 480 -1024 l 1
 462 -1024 l 1
 462 3194 l 1
EndSplineSet
EndChar

StartChar: cent
Encoding: 162 162 98
GlifName: cent
Width: 1978
VWidth: 4730
Flags: HMW
LayerCount: 2
Fore
SplineSet
1086 2274 m 1
 1086 -348 l 1
 1070 -348 l 1
 1070 2274 l 1
 1086 2274 l 1
EndSplineSet
Refer: 40 99 N 1 0 0 1 0 0 2
EndChar

StartChar: sterling
Encoding: 163 163 99
GlifName: sterling
Width: 2560
VWidth: 4730
Flags: HMW
LayerCount: 2
Fore
SplineSet
2466 644 m 1
 2466 50 2134 -122 1770 -122 c 0
 1208 -122 1024 122 766 122 c 0
 598 122 356 40 316 -82 c 1
 304 -82 l 1
 386 222 570 398 910 398 c 0
 1320 398 1482 258 1794 258 c 0
 2052 258 2450 308 2450 644 c 1
 2466 644 l 1
1904 1658 m 1
 1904 1642 l 1
 62 1642 l 1
 62 1658 l 1
 1904 1658 l 1
484 2252 m 0
 484 2826 912 3112 1572 3112 c 0
 2236 3112 2506 2778 2506 2442 c 0
 2506 2274 2388 2188 2266 2188 c 0
 2164 2188 2032 2252 2032 2416 c 0
 2032 2560 2148 2642 2266 2642 c 0
 2384 2642 2454 2548 2474 2502 c 1
 2474 2764 2212 3096 1582 3096 c 0
 1012 3096 938 2598 938 2294 c 0
 938 1888 1168 1618 1168 1310 c 0
 1168 572 258 552 312 -82 c 1
 294 -82 l 1
 216 488 816 808 816 1070 c 0
 816 1536 484 1780 484 2252 c 0
EndSplineSet
EndChar

StartChar: section
Encoding: 167 167 101
GlifName: section
Width: 1830
VWidth: 4730
Flags: HMW
LayerCount: 2
Fore
SplineSet
430 2638 m 0
 430 2162 1708 2202 1708 1576 c 0
 1708 1322 1492 1188 1270 1040 c 1
 1208 1064 l 1
 1306 1154 1396 1242 1396 1364 c 0
 1396 1900 254 1744 254 2490 c 0
 254 2916 622 3112 930 3112 c 0
 1290 3112 1642 2940 1642 2506 c 0
 1642 2338 1540 2212 1396 2212 c 0
 1274 2212 1176 2294 1176 2442 c 0
 1176 2574 1292 2666 1410 2666 c 0
 1456 2666 1512 2642 1528 2638 c 1
 1496 2856 1266 3032 930 3032 c 0
 672 3032 430 2872 430 2638 c 0
1676 664 m 0
 1676 238 1348 -40 876 -40 c 0
 516 -40 122 102 122 578 c 0
 122 746 224 872 368 872 c 0
 490 872 590 792 590 644 c 0
 590 512 474 418 356 418 c 0
 310 418 254 442 238 446 c 1
 292 176 582 40 876 40 c 0
 1298 40 1438 262 1438 454 c 0
 1438 930 156 868 156 1454 c 0
 156 1748 396 1942 536 2048 c 1
 614 2048 l 1
 598 1998 508 1872 508 1708 c 0
 508 1172 1676 1410 1676 664 c 0
EndSplineSet
EndChar

StartChar: asciitilde
Encoding: 126 126 104
GlifName: asciitilde
Width: 2818
VWidth: 4730
Flags: HMW
LayerCount: 2
Fore
SplineSet
872 1790 m 0
 654 1790 426 1698 426 1404 c 1
 410 1404 l 1
 410 1876 696 2088 1020 2088 c 0
 1470 2088 1510 1704 1904 1704 c 0
 2162 1704 2392 1794 2392 2088 c 1
 2408 2088 l 1
 2408 1616 2122 1404 1798 1404 c 0
 1278 1404 1294 1790 872 1790 c 0
EndSplineSet
EndChar

StartChar: copyright
Encoding: 169 169 105
GlifName: copyright
Width: 3562
Flags: HMW
LayerCount: 2
Fore
SplineSet
204 1536 m 0
 204 2408 910 3112 1782 3112 c 0
 2654 3112 3358 2408 3358 1536 c 0
 3358 664 2654 -40 1782 -40 c 0
 910 -40 204 664 204 1536 c 0
222 1536 m 0
 222 676 922 -24 1782 -24 c 0
 2642 -24 3342 676 3342 1536 c 0
 3342 2396 2642 3096 1782 3096 c 0
 922 3096 222 2396 222 1536 c 0
EndSplineSet
Refer: 14 67 N 0.6 0 0 0.6 868 614 2
EndChar

StartChar: registered
Encoding: 174 174 106
GlifName: registered
Width: 3562
Flags: HMW
LayerCount: 2
Fore
SplineSet
204 1536 m 0
 204 2408 910 3112 1782 3112 c 0
 2654 3112 3358 2408 3358 1536 c 0
 3358 664 2654 -40 1782 -40 c 0
 910 -40 204 664 204 1536 c 0
222 1536 m 0
 222 676 922 -24 1782 -24 c 0
 2642 -24 3342 676 3342 1536 c 0
 3342 2396 2642 3096 1782 3096 c 0
 922 3096 222 2396 222 1536 c 0
EndSplineSet
Refer: 29 82 N 0.6 0 0 0.6 974 606 2
EndChar

StartChar: logicalnot
Encoding: 172 172 107
GlifName: logicalnot
Width: 1990
Flags: HMW
LayerCount: 2
Fore
SplineSet
1728 2502 m 1
 246 2502 l 1
 246 2520 l 1
 1744 2520 l 1
 1744 1692 l 1
 1728 1692 l 1
 1728 2502 l 1
EndSplineSet
EndChar

StartChar: guillemotleft
Encoding: 171 171 108
GlifName: guillemotleft
Width: 2846
Flags: HMW
LayerCount: 2
Fore
SplineSet
1766 1590 m 1
 2610 602 l 1
 2600 594 l 1
 1250 1536 l 1
 1250 1638 l 1
 2600 2580 l 1
 2610 2572 l 1
 1766 1590 l 1
618 1590 m 1
 1462 602 l 1
 1454 594 l 1
 102 1536 l 1
 102 1638 l 1
 1454 2580 l 1
 1462 2572 l 1
 618 1590 l 1
EndSplineSet
EndChar

StartChar: mu
Encoding: 181 181 111
GlifName: mu
Width: 2284
VWidth: 4730
Flags: HMW
LayerCount: 2
Fore
SplineSet
1052 -504 m 0
 1188 -504 1294 -622 1294 -778 c 0
 1294 -938 1210 -1064 910 -1064 c 0
 624 -1064 376 -864 376 -496 c 2
 376 1314 l 1
 394 1314 l 1
 394 -496 l 2
 394 -852 636 -1080 988 -1040 c 1
 988 -1040 l 1
 886 -1000 806 -906 806 -758 c 0
 806 -622 916 -504 1052 -504 c 0
EndSplineSet
Refer: 58 117 N 1 0 0 1 0 0 2
EndChar

StartChar: asciicircum
Encoding: 94 94 113
GlifName: asciicircum
Width: 2232
Flags: HMW
LayerCount: 2
Fore
SplineSet
1114 2962 m 1
 422 2572 l 1
 410 2580 l 1
 984 3154 l 1
 1250 3154 l 1
 1822 2580 l 1
 1810 2572 l 1
 1114 2962 l 1
EndSplineSet
EndChar

StartChar: degree
Encoding: 176 176 115
GlifName: degree
Width: 1310
Flags: HMW
LayerCount: 2
Fore
SplineSet
164 2786 m 0
 164 3056 386 3276 656 3276 c 0
 926 3276 1146 3056 1146 2786 c 0
 1146 2516 926 2294 656 2294 c 0
 386 2294 164 2516 164 2786 c 0
266 2786 m 0
 266 2560 430 2396 656 2396 c 0
 882 2396 1044 2560 1044 2786 c 0
 1044 3012 882 3174 656 3174 c 0
 430 3174 266 3012 266 2786 c 0
EndSplineSet
EndChar

StartChar: onequarter
Encoding: 188 188 119
GlifName: onequarter
Width: 2624
Flags: HMW
LayerCount: 2
Fore
SplineSet
2138 2662 m 1
 2154 2662 l 1
 180 -410 l 1
 164 -410 l 1
 2138 2662 l 1
EndSplineSet
Refer: 6 52 N 0.6 0 0 0.6 1106 -422 2
Refer: 3 49 N 0.6 0 0 0.6 -32 1458 2
EndChar

StartChar: onehalf
Encoding: 189 189 120
GlifName: onehalf
Width: 2744
Flags: HMW
LayerCount: 2
Fore
SplineSet
2138 2662 m 1
 2154 2662 l 1
 180 -410 l 1
 164 -410 l 1
 2138 2662 l 1
EndSplineSet
Refer: 4 50 N 0.6 0 0 0.6 1396 -414 2
Refer: 3 49 N 0.6 0 0 0.6 -32 1458 2
EndChar

StartChar: threequarters
Encoding: 190 190 121
GlifName: threequarters
Width: 2870
Flags: HMW
LayerCount: 2
Fore
SplineSet
2384 2662 m 1
 2400 2662 l 1
 426 -410 l 1
 410 -410 l 1
 2384 2662 l 1
EndSplineSet
Refer: 5 51 N 0.6 0 0 0.6 20 1450 2
Refer: 6 52 N 0.6 0 0 0.6 1352 -422 2
EndChar

StartChar: grave
Encoding: 96 96 123
GlifName: grave
Width: 1616
Flags: HMW
LayerCount: 2
Fore
SplineSet
368 2950 m 2
 290 2954 226 3014 226 3092 c 0
 226 3170 296 3256 410 3228 c 2
 1380 2958 l 1
 1372 2940 l 1
 368 2950 l 2
EndSplineSet
EndChar

StartChar: acute
Encoding: 180 180 124
GlifName: acute
Width: 1616
Flags: HMW
LayerCount: 2
Fore
SplineSet
1250 2950 m 2
 246 2940 l 1
 238 2958 l 1
 1208 3228 l 2
 1322 3256 1392 3170 1392 3092 c 0
 1392 3014 1328 2954 1250 2950 c 2
EndSplineSet
EndChar

StartChar: cedilla
Encoding: 184 184 128
GlifName: cedilla
Width: 2252
Flags: HMW
LayerCount: 2
Fore
SplineSet
1348 -574 m 0
 1348 -356 1154 -324 888 -324 c 1
 1258 168 l 1
 1286 168 l 1
 1040 -160 l 1
 1334 -172 1638 -262 1638 -492 c 0
 1638 -696 1442 -836 946 -836 c 1
 946 -820 l 1
 1188 -820 1348 -714 1348 -574 c 0
EndSplineSet
EndChar

StartChar: ring
Encoding: 730 730 271
GlifName: ring
Width: 1310
VWidth: 0
Flags: HMW
LayerCount: 2
Fore
SplineSet
286 2786 m 0
 286 2994 448 3154 656 3154 c 0
 864 3154 1024 2994 1024 2786 c 0
 1024 2578 864 2416 656 2416 c 0
 448 2416 286 2578 286 2786 c 0
430 2786 m 0
 430 2614 468 2434 656 2434 c 0
 844 2434 880 2614 880 2786 c 0
 880 2958 844 3138 656 3138 c 0
 468 3138 430 2958 430 2786 c 0
EndSplineSet
EndChar

StartChar: tilde
Encoding: 732 732 272
GlifName: tilde
Width: 1834
VWidth: 0
Flags: HMW
LayerCount: 2
Fore
SplineSet
508 2740 m 0
 372 2740 222 2670 222 2458 c 1
 204 2458 l 1
 204 2806 410 2978 610 2978 c 0
 896 2978 1102 2654 1328 2654 c 0
 1500 2654 1614 2724 1614 2936 c 1
 1630 2936 l 1
 1630 2546 1508 2416 1266 2416 c 0
 992 2416 762 2740 508 2740 c 0
EndSplineSet
EndChar

StartChar: AE
Encoding: 198 198 274
GlifName: A_E_
Width: 4096
Flags: HMW
LayerCount: 2
Fore
SplineSet
2150 3072 m 1
 2170 3072 l 1
 462 0 l 1
 434 0 l 1
 2150 3072 l 1
62 16 m 1
 962 16 l 1
 962 0 l 1
 62 0 l 1
 62 16 l 1
1008 1012 m 1
 2192 1012 l 1
 2192 996 l 1
 1008 996 l 1
 1008 1012 l 1
2150 3072 m 1
 2540 3072 l 1
 2540 0 l 1
 2150 0 l 1
 2150 3072 l 1
2150 3072 m 1
 3932 3072 l 1
 3932 2232 l 1
 3916 2232 l 1
 3916 2670 3716 3056 3236 3056 c 2
 2150 3056 l 1
 2150 3072 l 1
3974 0 m 1
 1782 0 l 1
 1782 16 l 1
 3194 16 l 2
 3756 16 3956 402 3956 922 c 1
 3974 922 l 1
 3974 0 l 1
3220 1138 m 1
 3220 1412 3020 1582 2786 1582 c 2
 2540 1582 l 1
 2540 1598 l 1
 2786 1598 l 2
 3020 1598 3220 1746 3220 2020 c 1
 3236 2020 l 1
 3236 1138 l 1
 3220 1138 l 1
EndSplineSet
EndChar

StartChar: ae
Encoding: 230 230 277
GlifName: ae
Width: 3124
VWidth: 4730
Flags: HMW
LayerCount: 2
Fore
SplineSet
286 1500 m 0
 286 1754 644 1916 1016 1916 c 0
 1548 1916 1582 1582 1582 1250 c 1
 1520 742 l 1
 1520 234 1274 -40 820 -40 c 0
 496 -40 144 76 144 462 c 0
 144 806 458 1036 1040 1036 c 2
 1384 1036 l 1
 1384 1020 l 1
 1040 1020 l 2
 728 1020 562 778 562 524 c 0
 562 250 666 -20 892 -20 c 0
 1126 -20 1294 328 1294 742 c 2
 1294 1250 l 2
 1294 1524 1262 1884 934 1884 c 0
 680 1884 496 1790 398 1696 c 1
 616 1770 742 1640 742 1508 c 0
 742 1344 602 1274 500 1274 c 0
 378 1274 286 1352 286 1500 c 0
2584 1044 m 1
 2580 1396 2534 1908 2170 1908 c 0
 1764 1908 1658 1408 1658 942 c 0
 1658 476 1786 -16 2232 -16 c 0
 2630 -16 2904 246 3006 586 c 1
 3022 586 l 1
 2916 230 2638 -40 2184 -40 c 0
 1648 -40 1310 328 1310 942 c 0
 1310 1556 1634 1926 2170 1926 c 0
 2780 1926 3018 1474 3018 1028 c 1
 1504 1028 l 1
 1504 1044 l 1
 2584 1044 l 1
EndSplineSet
EndChar

StartChar: uni2010
Encoding: 8208 8208 279
GlifName: uni2010
Width: 1474
Flags: HMW
LayerCount: 2
Fore
SplineSet
246 1134 m 1
 1228 1134 l 1
 1228 1118 l 1
 246 1118 l 1
 246 1134 l 1
EndSplineSet
EndChar

StartChar: uni2011
Encoding: 8209 8209 280
GlifName: uni2011
Width: 1174
Flags: HMW
LayerCount: 2
Fore
SplineSet
246 1134 m 1
 930 1134 l 1
 930 1118 l 1
 246 1118 l 1
 246 1134 l 1
EndSplineSet
EndChar

StartChar: figuredash
Encoding: 8210 8210 282
GlifName: figuredash
Width: 1822
Flags: HMW
LayerCount: 2
Fore
SplineSet
246 1134 m 1
 1576 1134 l 1
 1576 1118 l 1
 246 1118 l 1
 246 1134 l 1
EndSplineSet
EndChar

StartChar: perthousand
Encoding: 8240 8240 285
GlifName: perthousand
Width: 6020
Flags: HMW
LayerCount: 2
Fore
SplineSet
4690 860 m 0
 4690 442 4754 -24 5058 -24 c 0
 5362 -24 5428 442 5428 860 c 0
 5428 1278 5362 1744 5058 1744 c 0
 4754 1744 4690 1278 4690 860 c 0
4240 860 m 0
 4240 1446 4596 1762 5058 1762 c 0
 5520 1762 5878 1446 5878 860 c 0
 5878 274 5438 -40 5058 -40 c 0
 4596 -40 4240 274 4240 860 c 0
2764 860 m 0
 2764 442 2830 -24 3134 -24 c 0
 3438 -24 3502 442 3502 860 c 0
 3502 1278 3438 1744 3134 1744 c 0
 2830 1744 2764 1278 2764 860 c 0
2314 860 m 0
 2314 1446 2672 1762 3134 1762 c 0
 3596 1762 3952 1446 3952 860 c 0
 3952 274 3514 -40 3134 -40 c 0
 2672 -40 2314 274 2314 860 c 0
3112 3072 m 1
 3134 3072 l 1
 984 0 l 1
 962 0 l 1
 3112 3072 l 1
594 2212 m 0
 594 1794 658 1328 962 1328 c 0
 1266 1328 1332 1794 1332 2212 c 0
 1332 2630 1266 3096 962 3096 c 0
 658 3096 594 2630 594 2212 c 0
144 2212 m 0
 144 2798 500 3112 962 3112 c 0
 1424 3112 1782 2798 1782 2212 c 0
 1782 1626 1342 1310 962 1310 c 0
 500 1310 144 1626 144 2212 c 0
EndSplineSet
EndChar

StartChar: uni2031
Encoding: 8241 8241 286
GlifName: uni2031
Width: 7986
Flags: HMW
LayerCount: 2
Fore
SplineSet
6656 860 m 0
 6656 442 6720 -24 7024 -24 c 0
 7328 -24 7394 442 7394 860 c 0
 7394 1278 7328 1744 7024 1744 c 0
 6720 1744 6656 1278 6656 860 c 0
6206 860 m 0
 6206 1446 6562 1762 7024 1762 c 0
 7486 1762 7844 1446 7844 860 c 0
 7844 274 7404 -40 7024 -40 c 0
 6562 -40 6206 274 6206 860 c 0
4690 860 m 0
 4690 442 4754 -24 5058 -24 c 0
 5362 -24 5428 442 5428 860 c 0
 5428 1278 5362 1744 5058 1744 c 0
 4754 1744 4690 1278 4690 860 c 0
4240 860 m 0
 4240 1446 4596 1762 5058 1762 c 0
 5520 1762 5878 1446 5878 860 c 0
 5878 274 5438 -40 5058 -40 c 0
 4596 -40 4240 274 4240 860 c 0
2764 860 m 0
 2764 442 2830 -24 3134 -24 c 0
 3438 -24 3502 442 3502 860 c 0
 3502 1278 3438 1744 3134 1744 c 0
 2830 1744 2764 1278 2764 860 c 0
2314 860 m 0
 2314 1446 2672 1762 3134 1762 c 0
 3596 1762 3952 1446 3952 860 c 0
 3952 274 3514 -40 3134 -40 c 0
 2672 -40 2314 274 2314 860 c 0
3112 3072 m 1
 3134 3072 l 1
 984 0 l 1
 962 0 l 1
 3112 3072 l 1
594 2212 m 0
 594 1794 658 1328 962 1328 c 0
 1266 1328 1332 1794 1332 2212 c 0
 1332 2630 1266 3096 962 3096 c 0
 658 3096 594 2630 594 2212 c 0
144 2212 m 0
 144 2798 500 3112 962 3112 c 0
 1424 3112 1782 2798 1782 2212 c 0
 1782 1626 1342 1310 962 1310 c 0
 500 1310 144 1626 144 2212 c 0
EndSplineSet
EndChar

StartChar: uniFB00
Encoding: 64256 64256 290
GlifName: uniF_B_00
Width: 2580
VWidth: 4730
Flags: HMW
LayerCount: 2
Fore
SplineSet
62 16 m 1
 2442 16 l 1
 2442 0 l 1
 62 0 l 1
 62 16 l 1
62 1884 m 1
 2524 1884 l 1
 2524 1868 l 1
 62 1868 l 1
 62 1884 l 1
1836 2510 m 1
 1824 2670 1626 2892 1318 2892 c 0
 994 2892 798 2528 798 2008 c 2
 798 0 l 1
 430 0 l 1
 430 1892 l 2
 430 2428 786 2908 1318 2908 c 0
 1650 2908 1864 2658 1864 2462 c 0
 1864 2294 1752 2208 1630 2208 c 0
 1528 2208 1400 2274 1400 2434 c 0
 1400 2594 1516 2658 1642 2658 c 0
 1732 2658 1808 2604 1836 2510 c 1
2880 2756 m 1
 2860 2916 2712 3096 2404 3096 c 0
 2076 3096 1966 2732 1966 2212 c 2
 1966 0 l 1
 1598 0 l 1
 1598 2098 l 2
 1598 2634 1872 3112 2404 3112 c 0
 2736 3112 2908 2900 2908 2708 c 0
 2908 2540 2796 2454 2674 2454 c 0
 2572 2454 2446 2518 2446 2678 c 0
 2446 2838 2560 2904 2686 2904 c 0
 2776 2904 2852 2850 2880 2756 c 1
EndSplineSet
Ligature2: "'liga' Standard Ligatures lookup 0-1" f f
LCarets2: 1 0
EndChar

StartChar: uniFB01
Encoding: 64257 64257 291
GlifName: uniF_B_01
Width: 2272
VWidth: 4730
Flags: HMW
LayerCount: 2
Fore
SplineSet
430 2098 m 2
 430 2634 746 3112 1360 3112 c 0
 1774 3112 1946 2900 1946 2666 c 0
 1946 2498 1834 2412 1712 2412 c 0
 1606 2412 1482 2486 1482 2634 c 0
 1482 2786 1598 2864 1724 2864 c 0
 1830 2864 1904 2790 1912 2716 c 1
 1908 2904 1750 3096 1360 3096 c 0
 914 3096 798 2732 798 2212 c 2
 798 0 l 1
 430 0 l 1
 430 2098 l 2
62 16 m 1
 2212 16 l 1
 2212 0 l 1
 62 0 l 1
 62 16 l 1
1556 1868 m 1
 62 1868 l 1
 62 1884 l 1
 1926 1884 l 1
 1926 0 l 1
 1556 0 l 1
 1556 1868 l 1
EndSplineSet
Ligature2: "'liga' Standard Ligatures lookup 0-1" f i
LCarets2: 1 0
EndChar

StartChar: uniFB02
Encoding: 64258 64258 292
GlifName: uniF_B_02
Width: 2314
VWidth: 4730
Flags: HMW
LayerCount: 2
Fore
SplineSet
62 16 m 1
 2294 16 l 1
 2294 0 l 1
 62 0 l 1
 62 16 l 1
62 1884 m 1
 1352 1884 l 1
 1352 1868 l 1
 62 1868 l 1
 62 1884 l 1
1638 2990 m 1
 2008 3154 l 1
 2008 0 l 1
 1638 0 l 1
 1638 2990 l 1
1754 2716 m 1
 1746 2892 1594 3096 1278 3096 c 0
 876 3096 798 2732 798 2212 c 2
 798 0 l 1
 430 0 l 1
 430 2098 l 2
 430 2634 746 3112 1278 3112 c 0
 1610 3112 1782 2900 1782 2666 c 0
 1782 2498 1670 2412 1548 2412 c 0
 1446 2412 1318 2470 1318 2634 c 0
 1318 2798 1436 2864 1576 2864 c 0
 1694 2864 1746 2716 1754 2716 c 1
EndSplineSet
Ligature2: "'liga' Standard Ligatures lookup 0-1" f l
LCarets2: 1 0
EndChar

StartChar: uniFB03
Encoding: 64259 64259 293
GlifName: uniF_B_03
Width: 3440
VWidth: 4730
Flags: HMW
LayerCount: 2
Fore
SplineSet
1598 2098 m 2
 1598 2634 1914 3112 2528 3112 c 0
 2942 3112 3112 2900 3112 2666 c 0
 3112 2498 3002 2412 2880 2412 c 0
 2774 2412 2650 2486 2650 2634 c 0
 2650 2786 2766 2864 2892 2864 c 0
 2998 2864 3072 2790 3080 2716 c 1
 3076 2904 2918 3096 2528 3096 c 0
 2082 3096 1966 2732 1966 2212 c 2
 1966 0 l 1
 1598 0 l 1
 1598 2098 l 2
62 16 m 1
 3380 16 l 1
 3380 0 l 1
 62 0 l 1
 62 16 l 1
430 1892 m 2
 430 2428 786 2908 1318 2908 c 0
 1650 2908 1864 2658 1864 2462 c 0
 1864 2294 1752 2208 1630 2208 c 0
 1528 2208 1400 2274 1400 2434 c 0
 1400 2594 1516 2658 1642 2658 c 0
 1732 2658 1808 2604 1836 2510 c 1
 1824 2670 1626 2892 1318 2892 c 0
 994 2892 798 2528 798 2008 c 2
 798 0 l 1
 430 0 l 1
 430 1892 l 2
2724 1868 m 1
 62 1868 l 1
 62 1884 l 1
 3092 1884 l 1
 3092 0 l 1
 2724 0 l 1
 2724 1868 l 1
EndSplineSet
Ligature2: "'liga' Standard Ligatures lookup 0-1" f f i
LCarets2: 2 0 0
EndChar

StartChar: uniFB04
Encoding: 64260 64260 294
GlifName: uniF_B_04
Width: 3522
VWidth: 4730
Flags: HMW
LayerCount: 2
Fore
SplineSet
62 16 m 1
 3462 16 l 1
 3462 0 l 1
 62 0 l 1
 62 16 l 1
62 1884 m 1
 2520 1884 l 1
 2520 1868 l 1
 62 1868 l 1
 62 1884 l 1
2806 2990 m 1
 3174 3154 l 1
 3174 0 l 1
 2806 0 l 1
 2806 2990 l 1
1836 2510 m 1
 1824 2670 1626 2892 1318 2892 c 0
 994 2892 798 2528 798 2008 c 2
 798 0 l 1
 430 0 l 1
 430 1892 l 2
 430 2428 786 2908 1318 2908 c 0
 1650 2908 1864 2658 1864 2462 c 0
 1864 2294 1752 2208 1630 2208 c 0
 1528 2208 1400 2274 1400 2434 c 0
 1400 2594 1516 2658 1642 2658 c 0
 1732 2658 1808 2604 1836 2510 c 1
2920 2716 m 1
 2912 2892 2762 3096 2446 3096 c 0
 2044 3096 1966 2732 1966 2212 c 2
 1966 0 l 1
 1598 0 l 1
 1598 2098 l 2
 1598 2634 1914 3112 2446 3112 c 0
 2778 3112 2950 2900 2950 2666 c 0
 2950 2498 2838 2412 2716 2412 c 0
 2614 2412 2486 2470 2486 2634 c 0
 2486 2798 2604 2864 2744 2864 c 0
 2862 2864 2912 2716 2920 2716 c 1
EndSplineSet
Ligature2: "'liga' Standard Ligatures lookup 0-1" f f l
LCarets2: 2 8 0
EndChar

StartChar: ogonek
Encoding: 731 731 295
GlifName: ogonek
Width: 2252
Flags: HMW
LayerCount: 2
Fore
SplineSet
1590 -462 m 1
 1528 -576 1408 -762 1118 -762 c 0
 910 -762 676 -656 676 -410 c 0
 676 -82 996 94 1246 176 c 1
 1258 164 l 1
 1132 94 1056 -94 1056 -344 c 0
 1056 -532 1146 -680 1286 -680 c 0
 1434 -680 1502 -576 1576 -454 c 1
 1590 -462 l 1
EndSplineSet
EndChar

StartChar: dotlessi
Encoding: 305 305 296
GlifName: dotlessi
Width: 1104
VWidth: 4730
Flags: HMW
LayerCount: 2
Fore
SplineSet
82 16 m 1
 1024 16 l 1
 1024 0 l 1
 82 0 l 1
 82 16 l 1
368 1868 m 1
 82 1868 l 1
 82 1884 l 1
 738 1884 l 1
 738 0 l 1
 368 0 l 1
 368 1868 l 1
EndSplineSet
EndChar

StartChar: uni0237
Encoding: 567 567 297
GlifName: uni0237
Width: 1158
VWidth: 4730
Flags: HMW
LayerCount: 2
Fore
SplineSet
836 1884 m 1
 836 -50 l 2
 836 -586 724 -1064 192 -1064 c 0
 -140 -1064 -312 -852 -312 -618 c 0
 -312 -450 -200 -364 -78 -364 c 0
 24 -364 152 -422 152 -586 c 0
 152 -750 34 -816 -106 -816 c 0
 -192 -816 -266 -742 -278 -668 c 1
 -278 -848 -106 -1044 172 -1044 c 0
 540 -1044 466 -438 466 82 c 2
 466 1868 l 1
 98 1868 l 1
 98 1884 l 1
 836 1884 l 1
EndSplineSet
EndChar

StartChar: kgreenlandic
Encoding: 312 312 306
GlifName: kgreenlandic
Width: 2382
VWidth: 4730
Flags: HMW
LayerCount: 2
Fore
SplineSet
2180 0 m 1
 1716 0 l 1
 802 1070 l 1
 1836 1884 l 1
 1860 1884 l 1
 1098 1274 l 1
 2180 0 l 1
1364 16 m 1
 2334 16 l 1
 2334 0 l 1
 1364 0 l 1
 1364 16 l 1
2196 1868 m 1
 1282 1868 l 1
 1282 1884 l 1
 2196 1884 l 1
 2196 1868 l 1
98 16 m 1
 1122 16 l 1
 1122 0 l 1
 98 0 l 1
 98 16 l 1
466 1868 m 1
 98 1868 l 1
 98 1884 l 1
 836 1884 l 1
 836 0 l 1
 466 0 l 1
 466 1868 l 1
EndSplineSet
EndChar

StartChar: breve
Encoding: 728 728 307
GlifName: breve
Width: 1146
VWidth: 4730
Flags: HMW
LayerCount: 2
Fore
SplineSet
140 3108 m 1
 140 2908 352 2806 574 2806 c 0
 796 2806 1008 2908 1008 3108 c 1
 1024 3108 l 1
 1024 2858 942 2580 574 2580 c 0
 206 2580 122 2858 122 3108 c 1
 140 3108 l 1
EndSplineSet
EndChar

StartChar: thorn
Encoding: 254 254 318
GlifName: thorn
Width: 2346
VWidth: 4730
Flags: HMW
LayerCount: 2
Fore
SplineSet
700 942 m 0
 700 1564 938 1922 1356 1922 c 0
 1802 1922 2224 1556 2224 942 c 0
 2224 328 1802 -40 1356 -40 c 0
 938 -40 700 320 700 942 c 0
716 942 m 0
 716 316 974 0 1290 0 c 0
 1634 0 1794 394 1794 942 c 0
 1794 1490 1634 1880 1290 1880 c 0
 974 1880 716 1568 716 942 c 0
62 -1008 m 1
 1004 -1008 l 1
 1004 -1024 l 1
 62 -1024 l 1
 62 -1008 l 1
348 3056 m 1
 62 3056 l 1
 62 3072 l 1
 716 3072 l 1
 716 -1024 l 1
 348 -1024 l 1
 348 3056 l 1
EndSplineSet
EndChar

StartChar: Thorn
Encoding: 222 222 319
GlifName: T_horn
Width: 2478
Flags: HMW
LayerCount: 2
Fore
SplineSet
430 3072 m 1
 820 3072 l 1
 820 0 l 1
 430 0 l 1
 430 3072 l 1
62 16 m 1
 1188 16 l 1
 1188 0 l 1
 62 0 l 1
 62 16 l 1
62 3072 m 1
 1188 3072 l 1
 1188 3056 l 1
 62 3056 l 1
 62 3072 l 1
1270 738 m 2
 738 738 l 1
 738 754 l 1
 1270 754 l 2
 1664 754 1884 1234 1884 1598 c 0
 1884 1962 1664 2442 1270 2442 c 2
 738 2442 l 1
 738 2458 l 1
 1270 2458 l 2
 2012 2458 2334 2130 2334 1598 c 0
 2334 1066 2012 738 1270 738 c 2
EndSplineSet
EndChar

StartChar: Lslash
Encoding: 321 321 324
GlifName: L_slash
Width: 2334
Flags: HMW
LayerCount: 2
Fore
SplineSet
62 1474 m 1
 1474 2376 l 1
 1474 2356 l 1
 62 1454 l 1
 62 1474 l 1
EndSplineSet
Refer: 23 76 N 1 0 0 1 0 0 2
EndChar

StartChar: lslash
Encoding: 322 322 325
GlifName: lslash
Width: 1200
VWidth: 4730
Flags: HMW
LayerCount: 2
Fore
SplineSet
46 1638 m 1
 1212 2376 l 1
 1212 2352 l 1
 46 1614 l 1
 46 1638 l 1
EndSplineSet
Refer: 49 108 N 1 0 0 1 0 0 2
EndChar

StartChar: eth
Encoding: 240 240 329
GlifName: eth
Width: 2292
VWidth: 4730
Flags: HMW
LayerCount: 2
Fore
SplineSet
450 2580 m 1
 2170 2580 l 1
 2170 2564 l 1
 450 2564 l 1
 450 2580 l 1
2088 1270 m 0
 2088 410 1708 -40 1090 -40 c 0
 472 -40 122 410 122 1024 c 0
 122 1720 606 2008 1020 2008 c 0
 1556 2008 1696 1626 1696 1146 c 1
 1680 1146 l 1
 1680 1604 1524 1970 1110 1970 c 0
 746 1970 532 1572 532 1024 c 0
 532 558 632 -24 1078 -24 c 0
 1524 -24 1680 598 1680 1146 c 1
 1676 1336 l 1
 1676 2148 1142 3096 430 3096 c 1
 430 3112 l 1
 1344 3112 2088 2266 2088 1270 c 0
EndSplineSet
EndChar

StartChar: OE
Encoding: 338 338 330
GlifName: O_E_
Width: 3890
Flags: HMW
LayerCount: 2
Fore
SplineSet
1614 3056 m 1025,0,0
634 1536 m 0,0,0
 634 790 860 16 1614 16 c 1,0,0
 1572 0 l 1,0,0
 740 0 164 622 164 1536 c 0,0,0
 164 2450 740 3072 1572 3072 c 1,0,0
 1614 3056 l 1,0,0
 860 3056 634 2282 634 1536 c 0,0,0
EndSplineSet
Refer: 16 69 N 1 0 0 1 1496 0 2
EndChar

StartChar: germandbls
Encoding: 223 223 332
GlifName: germandbls
Width: 2788
VWidth: 4730
Flags: HMW
LayerCount: 2
Fore
SplineSet
1404 1650 m 1
 1404 1668 l 1
 1932 1668 2088 2076 2088 2338 c 0
 2088 2632 1954 3096 1528 3096 c 0
 980 3096 798 2552 798 1970 c 2
 798 0 l 1
 430 0 l 1
 430 2012 l 2
 430 2720 860 3112 1528 3112 c 0
 2114 3112 2502 2760 2502 2380 c 0
 2502 1970 2228 1650 1404 1650 c 1
62 16 m 1
 1168 16 l 1
 1168 0 l 1
 62 0 l 1
 62 16 l 1
2626 656 m 0
 2626 246 2262 -40 1848 -40 c 0
 1558 -40 1324 182 1324 558 c 0
 1324 726 1432 824 1576 824 c 0
 1698 824 1798 742 1798 594 c 0
 1798 462 1682 368 1564 368 c 0
 1446 368 1372 446 1344 524 c 1
 1360 184 1576 -16 1826 -16 c 0
 2150 -16 2212 394 2212 656 c 0
 2212 1042 2096 1650 1404 1650 c 1
 1404 1668 l 1
 2392 1668 2626 1188 2626 656 c 0
EndSplineSet
EndChar

StartChar: circumflex
Encoding: 710 710 335
GlifName: circumflex
Width: 1576
Flags: HMW
LayerCount: 2
Fore
SplineSet
786 2970 m 1
 212 2692 l 1
 204 2704 l 1
 656 3154 l 1
 922 3154 l 1
 1372 2704 l 1
 1364 2692 l 1
 786 2970 l 1
EndSplineSet
EndChar

StartChar: caron
Encoding: 711 711 336
GlifName: caron
Width: 1576
Flags: HMW
LayerCount: 2
Fore
SplineSet
786 2928 m 1
 1360 3204 l 1
 1372 3194 l 1
 922 2744 l 1
 656 2744 l 1
 204 3194 l 1
 218 3204 l 1
 786 2928 l 1
EndSplineSet
EndChar

StartChar: pi
Encoding: 960 960 337
GlifName: pi
Width: 2378
VWidth: 4730
Flags: HMW
LayerCount: 2
Fore
SplineSet
2236 422 m 1
 2142 136 2006 -40 1794 -40 c 0
 1602 -40 1418 58 1418 300 c 2
 1418 1720 l 1
 1786 1720 l 1
 1786 340 l 2
 1786 258 1840 192 1938 192 c 0
 2048 192 2138 258 2220 434 c 1
 2236 422 l 1
426 -40 m 0
 258 -40 184 54 184 156 c 0
 184 434 644 336 644 1142 c 2
 644 1844 l 1
 872 1844 l 1
 872 996 l 2
 872 348 704 -40 426 -40 c 0
2154 1884 m 1
 2154 1516 l 1
 184 1516 l 1
 184 1208 l 1
 168 1208 l 1
 168 1884 l 1
 2154 1884 l 1
EndSplineSet
EndChar

StartChar: uni1E9E
Encoding: 7838 7838 338
GlifName: uni1E_9E_
Width: 3280
VWidth: 4730
Flags: HMWO
LayerCount: 2
Fore
SplineSet
62 16 m 1
 1208 16 l 1
 1208 0 l 1
 62 0 l 1
 62 16 l 1
2142 1668 m 5
 2005.33333334 1683.90915923 1868.66666666 1690.43406486 1732 1700 c 5
 2704 2900 l 1
 2564 2974 2290 3096 1896 3096 c 0
 1184 3096 840 2470 840 1766 c 2
 840 0 l 1
 430 0 l 1
 430 1806 l 2
 430 2638 1064 3112 1896 3112 c 0
 2522 3112 2872 2844 2994 2708 c 1
 2142 1668 l 5
1274 520 m 1
 1282 262 1546 -12 2012 -12 c 0
 2500 -12 2682 392 2682 778 c 0
 2682 1082 2630 1684 1732 1684 c 1
 1732 1700 l 1
 2924 1700 3118 1228 3118 778 c 0
 3118 246 2672 -40 2094 -40 c 0
 1512 -40 1250 264 1250 558 c 0
 1250 726 1352 824 1496 824 c 0
 1618 824 1716 742 1716 594 c 0
 1716 462 1600 368 1482 368 c 0
 1376 368 1290 450 1274 520 c 1
EndSplineSet
EndChar

StartChar: uni203D
Encoding: 8253 8253 339
GlifName: uni203D_
Width: 2456
Flags: HMW
LayerCount: 2
Fore
SplineSet
1500 1982 m 0
 1454 1588 1224 1138 1224 852 c 1
 1208 852 l 1
 1208 1138 1062 1588 1016 1982 c 0
 1012 2010 1012 2036 1012 2060 c 0
 1012 2174 1066 2368 1258 2368 c 0
 1450 2368 1504 2174 1504 2060 c 0
 1504 2036 1504 2010 1500 1982 c 0
286 2216 m 0
 286 2592 672 3112 1336 3112 c 0
 1954 3112 2334 2784 2334 2252 c 0
 2334 1760 1836 1372 1340 1372 c 1
 1340 1388 l 1
 1696 1434 1962 1876 1962 2294 c 0
 1962 2680 1688 3068 1242 3068 c 0
 694 3068 328 2582 320 2278 c 1
 340 2348 402 2416 520 2416 c 0
 638 2416 754 2336 754 2192 c 0
 754 2028 622 1962 520 1962 c 0
 398 1962 286 2048 286 2216 c 0
EndSplineSet
Refer: 1 46 N 1 0 0 1 816 0 2
EndChar

StartChar: R.alt
Encoding: 65536 -1 340
GlifName: R_.alt
Width: 2764
Flags: HMW
LayerCount: 2
Fore
SplineSet
1434 1568 m 2
 820 1568 l 1
 820 1586 l 1
 1434 1586 l 2
 1828 1586 2048 1868 2048 2314 c 0
 2048 2760 1828 3056 1434 3056 c 2
 82 3056 l 1
 82 3072 l 1
 1434 3072 l 2
 2052 3072 2458 2846 2458 2314 c 0
 2458 1782 2094 1568 1434 1568 c 2
82 16 m 1
 1372 16 l 1
 1372 0 l 1
 82 0 l 1
 82 16 l 1
532 3072 m 1
 922 3072 l 1
 922 0 l 1
 532 0 l 1
 532 3072 l 1
2724 0 m 1
 2658 0 2586 0 2438 0 c 0
 1484 0 2380 1568 1414 1568 c 2
 820 1568 l 1
 820 1576 l 1
 1496 1576 l 2
 2900 1576 2118 16 2580 16 c 0
 2666 16 2666 16 2724 16 c 1
 2724 0 l 1
EndSplineSet
EndChar

StartChar: J.alt
Encoding: 65537 -1 341
GlifName: J_.alt
Width: 2214
Flags: HMW
LayerCount: 2
Fore
SplineSet
864 3072 m 1
 2154 3072 l 1
 2154 3056 l 1
 864 3056 l 1
 864 3072 l 1
1356 3072 m 1
 1744 3072 l 1
 1744 1146 l 2
 1744 490 1422 -40 762 -40 c 0
 282 -40 82 308 82 594 c 0
 82 848 234 984 398 984 c 0
 542 984 668 908 668 720 c 0
 668 576 534 462 394 462 c 0
 272 462 126 516 102 622 c 1
 86 290 328 -24 762 -24 c 0
 1258 -24 1356 450 1356 1024 c 2
 1356 3072 l 1
EndSplineSet
EndChar

StartChar: four.alt
Encoding: 65538 -1 342
GlifName: four.alt
Width: 2436
VWidth: 4730
Flags: HMW
LayerCount: 2
Fore
SplineSet
2170 16 m 1
 2170 0 l 1
 1086 0 l 1
 1086 16 l 1
 2170 16 l 1
1864 2040 m 1
 1864 -4 l 1
 1474 -4 l 1
 1474 1958 l 1
 1596 1958 1782 2000 1864 2040 c 1
90 774 m 1
 2232 774 l 1
 2232 758 l 1
 62 758 l 1
 636 1578 1310 2458 1392 3072 c 1
 1794 3072 l 1
 1716 2478 668 1568 90 774 c 1
EndSplineSet
EndChar

StartChar: fj.lig
Encoding: 65539 -1 343
GlifName: fj.lig
Width: 2232
VWidth: 4730
Flags: HMW
LayerCount: 2
Fore
SplineSet
62 16 m 1
 1188 16 l 1
 1188 0 l 1
 62 0 l 1
 62 16 l 1
1884 -50 m 2
 1884 -586 1774 -1064 1242 -1064 c 0
 910 -1064 738 -852 738 -618 c 0
 738 -450 848 -364 970 -364 c 0
 1072 -364 1200 -422 1200 -586 c 0
 1200 -750 1082 -816 942 -816 c 0
 856 -816 774 -742 766 -668 c 1
 778 -872 958 -1044 1220 -1044 c 0
 1588 -1044 1516 -438 1516 82 c 2
 1516 1868 l 1
 62 1868 l 1
 62 1884 l 1
 1884 1884 l 1
 1884 -50 l 2
1872 2716 m 1
 1872 2884 1728 3096 1318 3096 c 0
 908 3096 798 2732 798 2212 c 2
 798 0 l 1
 430 0 l 1
 430 2098 l 2
 430 2634 704 3112 1318 3112 c 0
 1732 3112 1904 2900 1904 2666 c 0
 1904 2498 1794 2412 1672 2412 c 0
 1570 2412 1442 2470 1442 2634 c 0
 1442 2798 1570 2864 1684 2864 c 0
 1794 2864 1856 2790 1872 2716 c 1
EndSplineSet
LCarets2: 1 0
Ligature2: "'liga' Standard Ligatures lookup 0-1" f j
EndChar

StartChar: uni2116
Encoding: 8470 8470 344
Width: 4448
Flags: HW
LayerCount: 2
Fore
SplineSet
3298 2334 m 0
 3298 1868 3400 1572 3642 1572 c 0
 3884 1572 3986 1868 3986 2334 c 0
 3986 2800 3884 3096 3642 3096 c 0
 3400 3096 3298 2800 3298 2334 c 0
2950 2334 m 0
 2950 2826 3228 3112 3642 3112 c 0
 4056 3112 4334 2826 4334 2334 c 0
 4334 1842 4056 1556 3642 1556 c 0
 3228 1556 2950 1842 2950 2334 c 0
EndSplineSet
Refer: 85 45 N 1 0 0 1 2904 164 2
Refer: 25 78 N 1 0 0 1 0 0 2
EndChar

StartChar: Euro
Encoding: 8364 8364 345
Width: 2908
Flags: HW
LayerCount: 2
Fore
SplineSet
2654 2600 m 1
 2608 2792 2340 3092 1922 3092 c 0
 1230 3092 984 2248 984 1536 c 0
 984 742 1294 -16 1822 -16 c 0
 2248 -16 2556 340 2658 730 c 1
 2674 730 l 1
 2568 332 2270 -40 1774 -40 c 0
 1156 -40 512 594 512 1536 c 0
 512 2396 1056 3112 1880 3112 c 0
 2380 3112 2682 2736 2682 2524 c 0
 2682 2356 2572 2270 2450 2270 c 0
 2348 2270 2216 2334 2216 2498 c 0
 2216 2642 2332 2724 2450 2724 c 0
 2568 2724 2638 2640 2654 2600 c 1
EndSplineSet
Refer: 88 61 N 1 0 0 1 -122 -286 2
EndChar
